<?xml version="1.0" encoding="UTF-8" standalone="no"?>
<!-- SPDX-FileCopyrightText: Simon Schneegans <code@simonschneegans.de> -->
<!-- SPDX-License-Identifier: CC0-1.0 -->

<svg
  width="256"
  height="256"
  viewBox="0 0 256 256"
  version="1.1"
  id="svg1"
  xml:space="preserve"
  xmlns="http://www.w3.org/2000/svg"
  xmlns:svg="http://www.w3.org/2000/svg"><defs
     id="defs1" /><g
     id="layer1"><path
       id="path2"
       style="fill:currentColor"
       d="M 93.175781 21.878906 A 37.714935 37.714935 0 0 0 56.533203 48.351562 A 37.714935 37.714935 0 0 0 81.296875 95.589844 A 37.714935 37.714935 0 0 0 128.53711 70.826172 A 37.714935 37.714935 0 0 0 103.77344 23.585938 A 37.714935 37.714935 0 0 0 93.175781 21.878906 z M 182.66016 35.625 A 37.714935 37.714935 0 0 0 144.94531 73.339844 A 37.714935 37.714935 0 0 0 182.66016 111.05469 A 37.714935 37.714935 0 0 0 220.375 73.339844 A 37.714935 37.714935 0 0 0 182.66016 35.625 z M 54.578125 101.62695 A 37.714935 37.714935 0 0 0 21.8125 116.89844 A 37.714935 37.714935 0 0 0 29.8125 169.63281 A 37.714935 37.714935 0 0 0 82.544922 161.63281 A 37.714935 37.714935 0 0 0 74.546875 108.90039 A 37.714935 37.714935 0 0 0 54.578125 101.62695 z M 195.74805 125.76172 A 37.714935 37.714935 0 0 0 185.15039 127.46875 A 37.714935 37.714935 0 0 0 160.38477 174.70703 A 37.714935 37.714935 0 0 0 207.62305 199.47266 A 37.714935 37.714935 0 0 0 232.38867 152.23438 A 37.714935 37.714935 0 0 0 195.74805 125.76172 z M 114.24609 166.14648 A 37.714935 37.714935 0 0 0 94.267578 173.38867 A 37.714935 37.714935 0 0 0 86.193359 226.11133 A 37.714935 37.714935 0 0 0 138.91602 234.18555 A 37.714935 37.714935 0 0 0 146.99023 181.46289 A 37.714935 37.714935 0 0 0 114.24609 166.14648 z " /></g></svg>