<?xml version="1.0" encoding="UTF-8" standalone="no"?>
<!-- SPDX-FileCopyrightText: Simon Schneegans <code@simonschneegans.de> -->
<!-- SPDX-License-Identifier: CC0-1.0 -->

<svg
  width="256"
  height="256"
  viewBox="0 0 256 256"
  version="1.1"
  id="svg1"
  xml:space="preserve"
  xmlns="http://www.w3.org/2000/svg"
  xmlns:svg="http://www.w3.org/2000/svg"><defs
     id="defs1" /><path
     id="rect1"
     style="opacity:0.5;fill:currentColor;stroke-width:0.999999;-inkscape-stroke:none;paint-order:markers stroke fill;font-variation-settings:normal;vector-effect:none;fill-opacity:1;stroke-linecap:butt;stroke-linejoin:miter;stroke-miterlimit:4;stroke-dasharray:none;stroke-dashoffset:0;stroke-opacity:1;stop-color:#000000;stop-opacity:1"
     d="M 58.373047 37.921875 C 45.551685 37.921875 35.230469 48.243091 35.230469 61.064453 L 35.230469 97.25 C 35.230469 110.07136 45.551685 120.39453 58.373047 120.39453 L 151.30273 120.39453 C 164.1241 120.39453 174.44531 110.07136 174.44531 97.25 L 174.44531 61.064453 C 174.44531 48.243091 164.1241 37.921875 151.30273 37.921875 L 58.373047 37.921875 z M 77.03125 59.140625 L 90.511719 59.140625 L 105.54688 99.146484 L 92.613281 99.146484 L 90.648438 92.542969 L 76.566406 92.542969 L 74.628906 99.146484 L 61.994141 99.146484 L 77.03125 59.140625 z M 109.14844 59.140625 L 120.2832 59.140625 L 120.2832 99.146484 L 109.14844 99.146484 L 109.14844 59.140625 z M 140.77539 59.140625 L 140.77539 70.166016 L 146.88867 70.166016 L 146.88867 78.271484 L 140.77539 78.271484 L 140.77539 88.558594 C 140.77539 89.795665 140.89436 90.613443 141.13086 91.013672 C 141.4947 91.632207 142.1314 91.941406 143.04102 91.941406 C 143.85967 91.941406 145.0069 91.70542 146.48047 91.232422 L 147.29883 98.900391 C 144.5518 99.500734 141.9867 99.800781 139.60352 99.800781 C 136.8383 99.800781 134.80007 99.445825 133.49023 98.736328 C 132.18039 98.026832 131.20704 96.954764 130.57031 95.517578 C 129.95178 94.0622 129.64258 91.714778 129.64258 88.476562 L 129.64258 78.271484 L 125.54883 78.271484 L 125.54883 70.166016 L 129.64258 70.166016 L 129.64258 64.845703 L 140.77539 59.140625 z M 83.634766 69.511719 L 79.240234 83.892578 L 88.054688 83.892578 L 83.634766 69.511719 z " /><path
     id="rect2"
     style="font-variation-settings:normal;opacity:1;vector-effect:none;fill:currentColor;fill-opacity:1;stroke-width:0.999999;stroke-linecap:butt;stroke-linejoin:miter;stroke-miterlimit:4;stroke-dasharray:none;stroke-dashoffset:0;stroke-opacity:1;-inkscape-stroke:none;paint-order:markers stroke fill;stop-color:#000000;stop-opacity:1"
     d="M 110.66602 132.83594 C 97.844653 132.83594 87.521484 143.15911 87.521484 155.98047 L 87.521484 192.16602 C 87.521484 204.98738 97.844653 215.31055 110.66602 215.31055 L 197.71875 215.31055 C 210.54011 215.31055 220.86133 204.98738 220.86133 192.16602 L 220.86133 155.98047 C 220.86133 143.15911 210.54011 132.83594 197.71875 132.83594 L 110.66602 132.83594 z M 175.3457 153.73047 L 185.0332 153.73047 L 185.0332 178.31641 L 190.05273 178.31641 L 190.05273 186.93945 L 185.0332 186.93945 L 185.0332 194.41602 L 175.3457 194.41602 L 175.3457 186.93945 L 155.09766 186.93945 L 155.09766 177.79883 L 175.3457 153.73047 z M 120.82227 154.41211 L 151.38672 154.41211 L 151.38672 163.00781 L 133.23828 163.00781 L 133.23828 169.99414 L 148.73828 169.99414 L 148.73828 178.07031 L 133.23828 178.07031 L 133.23828 194.41602 L 120.82227 194.41602 L 120.82227 154.41211 z M 175.3457 165.73633 L 164.64844 178.31641 L 175.3457 178.31641 L 175.3457 165.73633 z " /></svg>