<svg width="256" height="256" xml:space="preserve" xmlns:xlink="http://www.w3.org/1999/xlink" xmlns="http://www.w3.org/2000/svg" xmlns:svg="http://www.w3.org/2000/svg">

    <!-- SPDX-FileCopyrightText: Simon Schneegans <code@simonschneegans.de> -->
    <!-- SPDX-FileCopyrightText: Bingies24 <@bingies24 on Discord, YouTube, and GitHub> -->
    <!-- SPDX-License-Identifier: CC-BY-4.0 -->

<g>
<defs>
<linearGradient id="basea" x1="48.338" x2="78.104" y1="13.229" y2="122.24" gradientTransform="translate(-31.068 -31.068) scale(2.3484)" gradientUnits="userSpaceOnUse">
<stop stop-color="#a53d6b" offset="0"/>
<stop stop-color="#652945" offset="1"/>
</linearGradient>
</defs>
<g stroke-linecap="square" stroke-opacity=".29" stroke-width=".56">
<circle cx="128" cy="128" fill="url(#basea)" style="-inkscape-stroke:none;font-variation-settings:normal;paint-order:stroke fill markers" r="128"/>
<path d="M.037 125.24 0 128.002c0 45.73 24.397 87.985 64 110.85 39.569 22.845 88.45 22.835 128 0 39.603-22.865 64-65.12 64-110.85l-.037-2.762c0 70.933-57.46 126.74-127.96 126.76C57.5 251.98.043 196.172.043 125.24z" opacity=".397" style="paint-order:stroke fill markers"/>
</g>
</g>
<path fill="#f0cece" d="M207.014 89.391c-10.172 10.766-41.01 19.118-50.257 9.87-9.248-9.24-.792-39.996 9.87-50.255 9.168-8.83 19.787-11.5 32.195-6.512 5.2 2.096 1.489 10.244 2.442 12.247 1.973 1.048 9.776-3.425 12.203 2.346 5.133 12.196 2.23 23.123-6.453 32.304m-42.755 92.446c-13.377-6.35-30.852-33.11-24.92-44.756 5.94-11.653 37.782-13.127 50.843-6.145 11.22 5.991 17.043 15.268 16.134 28.615-.381 5.588-9.277 4.583-10.897 6.109-.382 2.2 6.284 8.243 1.554 12.32-10.017 8.653-21.304 9.277-32.714 3.857m-75.66.896c1.907-14.683 21.95-39.58 34.857-37.534s24.149 31.886 21.56 46.466c-2.23 12.54-9.255 20.922-22.22 24.2-5.435 1.357-7.224-7.407-9.182-8.484-2.2.307-5.89 8.52-11.235 5.28-11.338-6.85-15.4-17.388-13.78-29.928M64.42 110.87c14.558-2.692 44.398 8.764 46.407 21.685s-22.94 32.766-37.606 34.754c-12.614 1.723-22.757-2.39-29.833-13.736-2.97-4.767 4.84-9.152 5.251-11.337-.976-2.01-9.915-3.007-8.477-9.087 3.058-12.884 11.843-19.991 24.273-22.286m60.796-45.043c7.061 13.017 5.39 44.933-6.27 50.843s-38.268-11.688-44.713-25.036c-5.53-11.462-4.753-22.39 3.85-32.634 3.608-4.29 10.193 1.775 12.4 1.496 1.614-1.54-.22-10.355 6.014-10.86 13.2-1.079 22.676 5.074 28.696 16.191"/>
</svg>