<svg width="256" height="256" xml:space="preserve" xmlns:xlink="http://www.w3.org/1999/xlink" xmlns="http://www.w3.org/2000/svg" xmlns:svg="http://www.w3.org/2000/svg">

    <!-- SPDX-FileCopyrightText: Simon Schneegans <code@simonschneegans.de> -->
    <!-- SPDX-FileCopyrightText: Bingies24 <@bingies24 on Discord, YouTube, and GitHub> -->
    <!-- SPDX-License-Identifier: CC-BY-4.0 -->

<g>
<defs>
<linearGradient id="basea" x1="48.338" x2="78.104" y1="13.229" y2="122.24" gradientTransform="translate(-31.068 -31.068) scale(2.3484)" gradientUnits="userSpaceOnUse">
<stop stop-color="#a53d6b" offset="0"/>
<stop stop-color="#652945" offset="1"/>
</linearGradient>
</defs>
<g stroke-linecap="square" stroke-opacity=".29" stroke-width=".56">
<circle cx="128" cy="128" fill="url(#basea)" style="-inkscape-stroke:none;font-variation-settings:normal;paint-order:stroke fill markers" r="128"/>
<path d="M.037 125.24 0 128.002c0 45.73 24.397 87.985 64 110.85 39.569 22.845 88.45 22.835 128 0 39.603-22.865 64-65.12 64-110.85l-.037-2.762c0 70.933-57.46 126.74-127.96 126.76C57.5 251.98.043 196.172.043 125.24z" opacity=".397" style="paint-order:stroke fill markers"/>
</g>
</g>
<path fill="#f0cece" d="M204.677 89.047c-10.15 10.703-39.754 16.177-46.915 9.037-7.155-7.133-2.087-35.044 8.078-45.747a26.783 26.783 0 0 1 37.815-1.022 26.65 26.65 0 0 1 1.022 37.732m-36.891 89.182c-13.343-6.328-27.721-32.719-23.122-41.721 4.592-9.01 32.76-12.81 46.096-6.482a26.768 26.692 0 0 1-22.975 48.203m-75.595 3.157c1.918-14.616 22.638-36.4 32.642-34.826s22.317 27.147 20.399 41.757a26.755 26.678 0 1 1-53.048-6.93m-26.363-70.66c14.526-2.716 41.715 10.178 43.31 20.146s-18.927 29.597-33.446 32.32a26.74 26.74 0 0 1-31.221-21.308 26.692 26.692 0 0 1 21.357-31.152m59.265-46.95c7.07 12.944 3.17 42.722-5.845 47.315S85.182 102.27 78.112 89.32a26.768 26.692 0 0 1 10.69-36.205 26.74 26.671 0 0 1 36.282 10.668"/>
</svg>