<?xml version="1.0" encoding="UTF-8" standalone="no"?>
<!-- SPDX-FileCopyrightText: Simon Schneegans <code@simonschneegans.de> -->
<!-- SPDX-License-Identifier: CC0-1.0 -->

<svg
  width="256"
  height="256"
  viewBox="0 0 256 256"
  version="1.1"
  id="svg1"
  xml:space="preserve"
  xmlns="http://www.w3.org/2000/svg"
  xmlns:svg="http://www.w3.org/2000/svg"><defs
     id="defs1" /><g
     id="layer1"><g
       id="path8"><path
         d="m 121.14961,32.362998 c -7.54604,0 -13.64721,6.101033 -13.64721,13.647074 v 6.208173 c -6.47561,1.76615 -12.737216,4.388453 -18.570676,7.760182 l -4.442023,-4.442023 c -5.351883,-5.351883 -13.968218,-5.351883 -19.3201,0 l -9.633197,9.686766 c -5.351883,5.351746 -5.351883,13.968218 0,19.319963 l 4.388453,4.388591 c -3.371728,5.83346 -5.940599,12.095066 -7.706612,18.570816 h -6.208173 c -7.546041,0 -13.647074,6.10103 -13.647074,13.64707 v 13.70064 c 0,7.54604 6.101033,13.64708 13.647074,13.64708 h 6.154603 c 1.819583,6.47574 4.388454,12.73735 7.760182,18.57081 l -4.388453,4.38845 c -5.351883,5.35189 -5.351883,13.96836 0,19.3201 l 9.633197,9.68677 c 5.351882,5.35188 13.968217,5.35188 19.3201,0 l 4.388453,-4.38845 c 5.88703,3.31816 12.095066,5.94046 18.624246,7.65304 v 6.2616 c 0,7.54618 6.10117,13.64722 13.64721,13.64722 h 13.64707 c 7.59961,0 13.70065,-6.10104 13.70065,-13.64722 v -6.20803 c 6.47574,-1.76615 12.73735,-4.38845 18.57081,-7.76018 l 4.38845,4.44202 c 5.35189,5.35188 13.96822,5.35188 19.3201,0 l 9.68677,-9.68677 c 5.35188,-5.35174 5.35188,-13.96821 0,-19.3201 l -4.38845,-4.38845 c 3.31816,-5.83346 5.94046,-12.09507 7.65304,-18.57081 h 6.20817 c 7.59948,0 13.70065,-6.10104 13.70065,-13.64708 v -13.70064 c 0,-7.54604 -6.10117,-13.64707 -13.70065,-13.64707 h -6.1546 c -1.76615,-6.47575 -4.38845,-12.737356 -7.76018,-18.570816 l 4.44202,-4.388591 c 5.35188,-5.351745 5.35188,-13.968217 0,-19.319963 l -9.68677,-9.686766 c -5.35188,-5.351883 -13.96821,-5.351883 -19.3201,0 l -4.38845,4.388453 c -5.83346,-3.318159 -12.09507,-5.88703 -18.57081,-7.653043 v -6.261742 c 0,-7.546041 -6.10104,-13.647074 -13.70065,-13.647074 z m 7.06433,39.171279 c 31.21769,0 56.41208,25.267914 56.41208,56.412083 0,31.14417 -25.19439,56.41208 -56.41208,56.41208 -31.144182,0 -56.41209,-25.26791 -56.41209,-56.41208 0,-31.144169 25.267908,-56.412083 56.41209,-56.412083 z"
         fill="#222222"
         id="path1"
         style="font-variation-settings:normal;opacity:1;vector-effect:none;fill:currentColor;fill-opacity:1;stroke-width:1;stroke-linecap:butt;stroke-linejoin:miter;stroke-miterlimit:4;stroke-dasharray:none;stroke-dashoffset:0;stroke-opacity:1;-inkscape-stroke:none;stop-color:#000000;stop-opacity:1" /><path
         id="path5"
         style="font-variation-settings:normal;opacity:0.5;vector-effect:none;fill:currentColor;fill-opacity:1;stroke-width:1;stroke-linecap:butt;stroke-linejoin:miter;stroke-miterlimit:4;stroke-dasharray:none;stroke-dashoffset:0;stroke-opacity:1;-inkscape-stroke:none;paint-order:markers stroke fill;stop-color:#000000;stop-opacity:1"
         d="M 128,86.232047 A 41.768577,41.768577 0 0 0 86.232047,128 41.768577,41.768577 0 0 0 128,169.76794 41.768577,41.768577 0 0 0 169.76794,128 41.768577,41.768577 0 0 0 128,86.232047 Z m 0,18.061153 A 23.706236,23.706236 0 0 1 151.70679,128 23.706236,23.706236 0 0 1 128,151.70679 23.706236,23.706236 0 0 1 104.2932,128 23.706236,23.706236 0 0 1 128,104.2932 Z" /></g></g></svg>