<?xml version="1.0" encoding="UTF-8" standalone="no"?>
<!-- SPDX-FileCopyrightText: Simon Schneegans <code@simonschneegans.de> -->
<!-- SPDX-License-Identifier: CC0-1.0 -->

<svg
  width="256"
  height="256"
  viewBox="0 0 256 256"
  version="1.1"
  id="svg1"
  xml:space="preserve"
  xmlns="http://www.w3.org/2000/svg"
  xmlns:svg="http://www.w3.org/2000/svg"><defs
     id="defs1" /><g
     id="layer1"><path
       id="path6"
       style="fill:currentColor;opacity:0.5"
       d="M 93.17578 21.878905 A 37.714935 37.714935 0 0 0 56.533202 48.351562 A 37.714935 37.714935 0 0 0 67.398437 87.601562 A 72.910355 72.910355 0 0 1 128 55.089843 A 72.910355 72.910355 0 0 1 129.97656 55.138671 A 37.714935 37.714935 0 0 0 103.77344 23.585937 A 37.714935 37.714935 0 0 0 93.17578 21.878905 z M 182.66016 35.624999 A 37.714935 37.714935 0 0 0 148.32226 57.996093 A 72.910355 72.910355 0 0 1 198.00391 107.67773 A 37.714935 37.714935 0 0 0 220.375 73.339843 A 37.714935 37.714935 0 0 0 182.66016 35.624999 z M 49.86914 101.62109 A 37.714935 37.714935 0 0 0 21.812499 116.89844 A 37.714935 37.714935 0 0 0 29.812499 169.63281 A 37.714935 37.714935 0 0 0 70.30078 172.27539 A 72.910355 72.910355 0 0 1 55.089843 128 A 72.910355 72.910355 0 0 1 59.90039 102.48047 A 37.714935 37.714935 0 0 0 54.578124 101.62695 A 37.714935 37.714935 0 0 0 49.86914 101.62109 z M 200.86719 126.22461 A 72.910355 72.910355 0 0 1 200.91016 128 A 72.910355 72.910355 0 0 1 168.38086 188.61523 A 37.714935 37.714935 0 0 0 207.62305 199.47266 A 37.714935 37.714935 0 0 0 232.38867 152.23437 A 37.714935 37.714935 0 0 0 200.86719 126.22461 z M 83.611327 185.61523 A 37.714935 37.714935 0 0 0 86.193358 226.11133 A 37.714935 37.714935 0 0 0 138.91601 234.18555 A 37.714935 37.714935 0 0 0 153.49805 196.10742 A 72.910355 72.910355 0 0 1 128 200.91016 A 72.910355 72.910355 0 0 1 83.611327 185.61523 z " /><path
       style="fill:currentColor"
       d="M 128,72.955078 A 55.045151,55.045151 0 0 0 72.955078,128 55.045151,55.045151 0 0 0 128,183.04492 55.045151,55.045151 0 0 0 183.04492,128 55.045151,55.045151 0 0 0 128,72.955078 Z"
       id="path3" /></g></svg>