<?xml version="1.0" encoding="UTF-8" standalone="no"?>
<!-- SPDX-FileCopyrightText: Simon Schneegans <code@simonschneegans.de> -->
<!-- SPDX-License-Identifier: CC0-1.0 -->

<svg
  width="256"
  height="256"
  viewBox="0 0 256 256"
  version="1.1"
  id="svg1"
  xml:space="preserve"
  xmlns="http://www.w3.org/2000/svg"
  xmlns:svg="http://www.w3.org/2000/svg"><defs
     id="defs1" /><path
     style="stroke-width:0.999998;font-variation-settings:normal;opacity:0.5;vector-effect:none;fill:currentColor;fill-opacity:1;stroke-linecap:butt;stroke-linejoin:miter;stroke-miterlimit:4;stroke-dasharray:none;stroke-dashoffset:0;stroke-opacity:1;-inkscape-stroke:none;stop-color:#000000;stop-opacity:1"
     d="m 186.35606,159.12323 h 38.90403 c 2.18835,0 3.8904,1.76284 3.8904,3.89041 v 23.34242 c 0,2.12756 -1.70205,3.8904 -3.8904,3.8904 h -38.90403 c -2.12757,0 -3.89041,-1.76284 -3.89041,-3.8904 v -23.34242 c 0,-2.12757 1.76284,-3.89041 3.89041,-3.89041 z"
     id="path25" /><path
     style="stroke-width:0.999998;font-variation-settings:normal;opacity:1;vector-effect:none;fill:currentColor;fill-opacity:1;stroke-linecap:butt;stroke-linejoin:miter;stroke-miterlimit:4;stroke-dasharray:none;stroke-dashoffset:0;stroke-opacity:1;-inkscape-stroke:none;stop-color:#000000;stop-opacity:1"
     d="m 77.424758,159.12323 h 85.588882 c 2.18835,0 3.8904,1.76284 3.8904,3.89041 v 23.34242 c 0,2.12756 -1.70205,3.8904 -3.8904,3.8904 H 77.424758 c -2.127564,0 -3.890404,-1.76284 -3.890404,-3.8904 v -23.34242 c 0,-2.12757 1.76284,-3.89041 3.890404,-3.89041 z"
     id="path24" /><path
     style="stroke-width:0.999998;font-variation-settings:normal;opacity:0.5;vector-effect:none;fill:currentColor;fill-opacity:1;stroke-linecap:butt;stroke-linejoin:miter;stroke-miterlimit:4;stroke-dasharray:none;stroke-dashoffset:0;stroke-opacity:1;-inkscape-stroke:none;stop-color:#000000;stop-opacity:1"
     d="m 30.739917,159.12323 h 23.34242 c 2.188352,0 3.890404,1.76284 3.890404,3.89041 v 23.34242 c 0,2.12756 -1.702052,3.8904 -3.890404,3.8904 h -23.34242 c -2.127565,0 -3.890404,-1.76284 -3.890404,-3.8904 v -23.34242 c 0,-2.12757 1.762839,-3.89041 3.890404,-3.89041 z"
     id="path23" /><path
     style="stroke-width:0.999998;font-variation-settings:normal;opacity:1;vector-effect:none;fill:currentColor;fill-opacity:1;stroke-linecap:butt;stroke-linejoin:miter;stroke-miterlimit:4;stroke-dasharray:none;stroke-dashoffset:0;stroke-opacity:1;-inkscape-stroke:none;stop-color:#000000;stop-opacity:1"
     d="m 186.35606,112.43839 h 23.34242 c 2.18835,0 3.8904,1.76284 3.8904,3.8904 v 23.34242 c 0,2.12757 -1.70205,3.89041 -3.8904,3.89041 h -23.34242 c -2.12757,0 -3.89041,-1.76284 -3.89041,-3.89041 v -23.34242 c 0,-2.12756 1.76284,-3.8904 3.89041,-3.8904 z"
     id="path22" /><path
     style="stroke-width:0.999998;font-variation-settings:normal;opacity:0.5;vector-effect:none;fill:currentColor;fill-opacity:1;stroke-linecap:butt;stroke-linejoin:miter;stroke-miterlimit:4;stroke-dasharray:none;stroke-dashoffset:0;stroke-opacity:1;-inkscape-stroke:none;stop-color:#000000;stop-opacity:1"
     d="m 139.67122,112.43839 h 23.34242 c 2.18835,0 3.8904,1.76284 3.8904,3.8904 v 23.34242 c 0,2.12757 -1.70205,3.89041 -3.8904,3.89041 h -23.34242 c -2.12757,0 -3.89041,-1.76284 -3.89041,-3.89041 v -23.34242 c 0,-2.12756 1.76284,-3.8904 3.89041,-3.8904 z"
     id="path21" /><path
     style="stroke-width:0.999998;font-variation-settings:normal;opacity:0.5;vector-effect:none;fill:currentColor;fill-opacity:1;stroke-linecap:butt;stroke-linejoin:miter;stroke-miterlimit:4;stroke-dasharray:none;stroke-dashoffset:0;stroke-opacity:1;-inkscape-stroke:none;stop-color:#000000;stop-opacity:1"
     d="M 92.986374,112.43839 H 116.3288 c 2.18835,0 3.8904,1.76284 3.8904,3.8904 v 23.34242 c 0,2.12757 -1.70205,3.89041 -3.8904,3.89041 H 92.986374 c -2.127564,0 -3.890406,-1.76284 -3.890406,-3.89041 v -23.34242 c 0,-2.12756 1.762842,-3.8904 3.890406,-3.8904 z"
     id="path20" /><path
     style="stroke-width:0.999998;font-variation-settings:normal;opacity:0.5;vector-effect:none;fill:currentColor;fill-opacity:1;stroke-linecap:butt;stroke-linejoin:miter;stroke-miterlimit:4;stroke-dasharray:none;stroke-dashoffset:0;stroke-opacity:1;-inkscape-stroke:none;stop-color:#000000;stop-opacity:1"
     d="m 46.30153,112.43839 h 23.342421 c 2.188352,0 3.890403,1.76284 3.890403,3.8904 v 23.34242 c 0,2.12757 -1.702051,3.89041 -3.890403,3.89041 H 46.30153 c -2.127564,0 -3.890403,-1.76284 -3.890403,-3.89041 v -23.34242 c 0,-2.12756 1.762839,-3.8904 3.890403,-3.8904 z"
     id="path19" /><path
     style="stroke-width:0.999998;font-variation-settings:normal;opacity:0.5;vector-effect:none;fill:currentColor;fill-opacity:1;stroke-linecap:butt;stroke-linejoin:miter;stroke-miterlimit:4;stroke-dasharray:none;stroke-dashoffset:0;stroke-opacity:1;-inkscape-stroke:none;stop-color:#000000;stop-opacity:1"
     d="m 170.79444,65.753549 h 23.34242 c 2.18836,0 3.89041,1.762835 3.89041,3.890404 v 23.34242 c 0,2.127565 -1.70205,3.890404 -3.89041,3.890404 h -23.34242 c -2.12756,0 -3.8904,-1.762839 -3.8904,-3.890404 v -23.34242 c 0,-2.127569 1.76284,-3.890404 3.8904,-3.890404 z"
     id="path18" /><path
     style="stroke-width:0.999998;font-variation-settings:normal;opacity:0.5;vector-effect:none;fill:currentColor;fill-opacity:1;stroke-linecap:butt;stroke-linejoin:miter;stroke-miterlimit:4;stroke-dasharray:none;stroke-dashoffset:0;stroke-opacity:1;-inkscape-stroke:none;stop-color:#000000;stop-opacity:1"
     d="m 124.1096,65.753549 h 23.34242 c 2.18835,0 3.89041,1.762835 3.89041,3.890404 v 23.34242 c 0,2.127565 -1.70206,3.890404 -3.89041,3.890404 H 124.1096 c -2.12756,0 -3.8904,-1.762839 -3.8904,-3.890404 v -23.34242 c 0,-2.127569 1.76284,-3.890404 3.8904,-3.890404 z"
     id="path17" /><path
     style="stroke-width:0.999998;font-variation-settings:normal;opacity:0.5;vector-effect:none;fill:currentColor;fill-opacity:1;stroke-linecap:butt;stroke-linejoin:miter;stroke-miterlimit:4;stroke-dasharray:none;stroke-dashoffset:0;stroke-opacity:1;-inkscape-stroke:none;stop-color:#000000;stop-opacity:1"
     d="m 77.424758,65.753549 h 23.342422 c 2.18835,0 3.8904,1.762835 3.8904,3.890404 v 23.34242 c 0,2.127565 -1.70205,3.890404 -3.8904,3.890404 H 77.424758 c -2.127564,0 -3.890404,-1.762839 -3.890404,-3.890404 v -23.34242 c 0,-2.127569 1.76284,-3.890404 3.890404,-3.890404 z"
     id="path16" /><path
     style="stroke-width:0.999998;font-variation-settings:normal;opacity:1;vector-effect:none;fill:currentColor;fill-opacity:1;stroke-linecap:butt;stroke-linejoin:miter;stroke-miterlimit:4;stroke-dasharray:none;stroke-dashoffset:0;stroke-opacity:1;-inkscape-stroke:none;stop-color:#000000;stop-opacity:1"
     d="m 30.739917,65.753549 h 23.34242 c 2.188352,0 3.890404,1.762835 3.890404,3.890404 v 23.34242 c 0,2.127565 -1.702052,3.890404 -3.890404,3.890404 h -23.34242 c -2.127565,0 -3.890404,-1.762839 -3.890404,-3.890404 v -23.34242 c 0,-2.127569 1.762839,-3.890404 3.890404,-3.890404 z"
     id="path1" /></svg>