<?xml version="1.0" encoding="UTF-8" standalone="no"?>
<!-- SPDX-FileCopyrightText: Simon Schneegans <code@simonschneegans.de> -->
<!-- SPDX-License-Identifier: CC0-1.0 -->

<svg
  width="256"
  height="256"
  viewBox="0 0 256 256"
  version="1.1"
  id="svg1"
  xml:space="preserve"
  xmlns="http://www.w3.org/2000/svg"
  xmlns:svg="http://www.w3.org/2000/svg"><defs
     id="defs1" /><path
     id="path5"
     style="opacity:0.5;fill:currentColor"
     d="M 89.84375,21.96875 A 37.714935,37.714935 0 0 0 56.533203,48.351562 37.714935,37.714935 0 0 0 81.296875,95.589844 37.714935,37.714935 0 0 0 128.53711,70.826172 37.714935,37.714935 0 0 0 103.77344,23.585938 37.714935,37.714935 0 0 0 95.480469,21.988281 37.714935,37.714935 0 0 0 89.84375,21.96875 Z M 182.66016,35.625 A 37.714935,37.714935 0 0 0 144.94531,73.339844 37.714935,37.714935 0 0 0 182.66016,111.05469 37.714935,37.714935 0 0 0 220.375,73.339844 37.714935,37.714935 0 0 0 182.66016,35.625 Z M 50.732422,101.57812 a 37.714935,37.714935 0 0 0 -28.919922,15.32032 37.714935,37.714935 0 0 0 8,52.73437 37.714935,37.714935 0 0 0 9.146484,4.77735 l 17.476563,-17.47657 c -12.397402,-3.7144 -21.650391,-15.19124 -21.650391,-28.69531 10e-7,-11.48559 6.664474,-21.58249 16.28125,-26.63476 a 37.714935,37.714935 0 0 0 -0.333984,-0.0254 z m 148.347658,24.27344 a 37.714935,37.714935 0 0 0 -5.63672,0.0195 37.714935,37.714935 0 0 0 -8.29297,1.59766 37.714935,37.714935 0 0 0 -24.76562,47.23828 37.714935,37.714935 0 0 0 47.23828,24.76563 37.714935,37.714935 0 0 0 24.76562,-47.23828 37.714935,37.714935 0 0 0 -33.30859,-26.38282 z M 98.996094,199.4668 81.447266,217.01562 a 37.714935,37.714935 0 0 0 4.746093,9.09571 37.714935,37.714935 0 0 0 52.722661,8.07422 37.714935,37.714935 0 0 0 15.36718,-29.20313 c -5.07156,9.55891 -15.13924,16.17188 -26.58203,16.17188 -13.51743,0 -25.00265,-9.27151 -28.705076,-21.6875 z" /><path
     style="fill:currentColor"
     d="m 64.85416,115.66907 c -6.922983,0 -12.569409,5.64642 -12.569409,12.56941 0,6.92298 5.646426,12.56942 12.569409,12.56942 h 32.45461 l -66.480382,66.48038 c -4.909995,4.95901 -4.909995,12.91306 0,17.82305 4.909861,4.90987 12.864036,4.90987 17.773898,0 l 66.529524,-66.52954 v 32.50376 c 0,6.92299 5.64642,12.56941 12.56941,12.56941 6.92298,0 12.56942,-5.64642 12.56942,-12.56941 v -62.84707 c 0,-1.07972 -0.14707,-2.16044 -0.44245,-3.24052 -0.29413,-1.07972 -0.68754,-2.11128 -1.27656,-3.04418 -0.54048,-0.93266 -1.17774,-1.81667 -1.96397,-2.60226 -0.19607,-0.14705 -0.39215,-0.29412 -0.58949,-0.44243 -0.68755,-0.63853 -1.47301,-1.17776 -2.30775,-1.62033 -0.44245,-0.2451 -0.93265,-0.44244 -1.42386,-0.58951 -0.63853,-0.29412 -1.27656,-0.49146 -1.96397,-0.63853 -0.49147,-0.14705 -1.0307,-0.19608 -1.52204,-0.2451 -0.39216,-0.10055 -0.73656,-0.10055 -1.07971,-0.14706 z"
     id="path10" /></svg>