<?xml version="1.0" encoding="UTF-8" standalone="no"?>
<!-- Created with Inkscape (http://www.inkscape.org/) -->

<svg
   width="256"
   height="256"
   viewBox="0 0 67.733333 67.733335"
   version="1.1"
   id="svg73998"
   inkscape:version="1.2.2 (b0a8486541, 2022-12-01)"
   sodipodi:docname="kando.svg"
   inkscape:export-filename="kando.png"
   inkscape:export-xdpi="192"
   inkscape:export-ydpi="192"
   xmlns:inkscape="http://www.inkscape.org/namespaces/inkscape"
   xmlns:sodipodi="http://sodipodi.sourceforge.net/DTD/sodipodi-0.dtd"
   xmlns:xlink="http://www.w3.org/1999/xlink"
   xmlns="http://www.w3.org/2000/svg"
   xmlns:svg="http://www.w3.org/2000/svg">
  <sodipodi:namedview
     id="namedview74000"
     pagecolor="#ffffff"
     bordercolor="#666666"
     borderopacity="1.0"
     inkscape:showpageshadow="2"
     inkscape:pageopacity="0.0"
     inkscape:pagecheckerboard="0"
     inkscape:deskcolor="#d1d1d1"
     inkscape:document-units="mm"
     showgrid="false"
     inkscape:zoom="2.3786088"
     inkscape:cx="138.10594"
     inkscape:cy="174.47173"
     inkscape:window-width="1920"
     inkscape:window-height="1163"
     inkscape:window-x="0"
     inkscape:window-y="0"
     inkscape:window-maximized="1"
     inkscape:current-layer="layer1" />
  <defs
     id="defs73995">
    <linearGradient
       inkscape:collect="always"
       xlink:href="#linearGradient26421"
       id="linearGradient26423"
       x1="77.627136"
       y1="105.9528"
       x2="81.987305"
       y2="122.16697"
       gradientUnits="userSpaceOnUse"
       gradientTransform="matrix(3.7418412,0,0,3.7418412,173.56643,-96.928589)" />
    <linearGradient
       inkscape:collect="always"
       id="linearGradient26421">
      <stop
         style="stop-color:#94507a;stop-opacity:1;"
         offset="0"
         id="stop26417" />
      <stop
         style="stop-color:#2c3453;stop-opacity:1;"
         offset="1"
         id="stop26419" />
    </linearGradient>
    <clipPath
       clipPathUnits="userSpaceOnUse"
       id="clipPath69399">
      <circle
         style="fill:url(#linearGradient69403);fill-opacity:1;stroke-width:1;paint-order:stroke fill markers;stop-color:#000000"
         id="circle69401"
         r="8.4016428"
         cy="113.92715"
         cx="80.684326" />
    </clipPath>
    <clipPath
       clipPathUnits="userSpaceOnUse"
       id="clipPath39525">
      <circle
         style="fill:url(#linearGradient39529);fill-opacity:1;stroke-width:1;paint-order:stroke fill markers;stop-color:#000000"
         id="circle39527"
         r="8.4016428"
         cy="113.92715"
         cx="80.684326" />
    </clipPath>
    <radialGradient
       inkscape:collect="always"
       xlink:href="#linearGradient40424"
       id="radialGradient40426"
       cx="-63.547203"
       cy="14.308595"
       fx="-63.547203"
       fy="14.308595"
       r="12.631711"
       gradientUnits="userSpaceOnUse" />
    <linearGradient
       inkscape:collect="always"
       id="linearGradient40424">
      <stop
         style="stop-color:#fcb7e9;stop-opacity:1;"
         offset="0"
         id="stop40420" />
      <stop
         style="stop-color:#da7db1;stop-opacity:1;"
         offset="1"
         id="stop40422" />
    </linearGradient>
    <radialGradient
       inkscape:collect="always"
       xlink:href="#linearGradient40424"
       id="radialGradient45260"
       gradientUnits="userSpaceOnUse"
       cx="-63.547203"
       cy="14.308595"
       fx="-63.547203"
       fy="14.308595"
       r="12.631711" />
    <radialGradient
       inkscape:collect="always"
       xlink:href="#linearGradient48306"
       id="radialGradient45264"
       gradientUnits="userSpaceOnUse"
       cx="-63.547203"
       cy="14.308595"
       fx="-63.547203"
       fy="14.308595"
       r="12.631711" />
    <linearGradient
       inkscape:collect="always"
       id="linearGradient48306">
      <stop
         style="stop-color:#a5d7e3;stop-opacity:1;"
         offset="0"
         id="stop48302" />
      <stop
         style="stop-color:#74aab4;stop-opacity:1;"
         offset="1"
         id="stop48304" />
    </linearGradient>
    <linearGradient
       inkscape:collect="always"
       xlink:href="#linearGradient4305"
       id="linearGradient4307"
       x1="65.743622"
       y1="118.10045"
       x2="65.743622"
       y2="119.61282"
       gradientUnits="userSpaceOnUse"
       gradientTransform="translate(0.07655858,0.0656517)" />
    <linearGradient
       inkscape:collect="always"
       id="linearGradient4305">
      <stop
         style="stop-color:#efbf86;stop-opacity:1;"
         offset="0"
         id="stop4301" />
      <stop
         style="stop-color:#be865e;stop-opacity:1;"
         offset="1"
         id="stop4303" />
    </linearGradient>
    <linearGradient
       inkscape:collect="always"
       xlink:href="#linearGradient40315"
       id="linearGradient40317"
       x1="53.330288"
       y1="117.38128"
       x2="57.8298"
       y2="121.903"
       gradientUnits="userSpaceOnUse" />
    <linearGradient
       inkscape:collect="always"
       id="linearGradient40315">
      <stop
         style="stop-color:#afafae;stop-opacity:1;"
         offset="0"
         id="stop40311" />
      <stop
         style="stop-color:#c8c8c7;stop-opacity:1;"
         offset="1"
         id="stop40313" />
    </linearGradient>
    <clipPath
       clipPathUnits="userSpaceOnUse"
       id="clipPath72651">
      <path
         id="path72653"
         style="fill:#6299a4;fill-opacity:0.685429;stroke-width:1;paint-order:stroke fill markers;stop-color:#000000"
         d="m 77.654151,113.13839 c -0.420405,0.0451 -0.923102,-0.29482 -0.968234,-0.71523 -0.04513,-0.4204 0.329847,-0.74599 0.750251,-0.79113 0.420405,-0.0451 0.72704,0.20729 0.772172,0.6277 0.04513,0.4204 -0.133784,0.83353 -0.554189,0.87866 z"
         sodipodi:nodetypes="sssss" />
    </clipPath>
    <clipPath
       clipPathUnits="userSpaceOnUse"
       id="clipPath72819">
      <path
         id="path72821"
         style="fill:#6c9098;fill-opacity:0.685429;stroke-width:1;paint-order:stroke fill markers;stop-color:#000000"
         d="m 79.938455,110.4005 c -3e-6,0.42282 -0.391666,0.88636 -0.814485,0.88636 -0.422819,0 -0.706525,-0.40759 -0.706529,-0.83041 -2e-6,-0.42282 0.283706,-0.70076 0.706529,-0.70076 0.422823,0 0.814487,0.22199 0.814485,0.64481 z"
         sodipodi:nodetypes="sssss" />
    </clipPath>
    <clipPath
       clipPathUnits="userSpaceOnUse"
       id="clipPath73313">
      <path
         id="path73315"
         style="fill:#ad624f;fill-opacity:0.619589;stroke-width:1;paint-order:stroke fill markers;stop-color:#000000"
         d="m 141.16294,21.7342 c 0.26666,0.328125 0.25513,0.934854 -0.073,1.201546 -0.32808,0.266706 -0.80534,0.129344 -1.07204,-0.19876 -0.26665,-0.328119 -0.22183,-0.72273 0.10628,-0.989422 0.32808,-0.266706 0.77205,-0.341469 1.03874,-0.01336 z m 0.26955,3.429333 c -0.26538,0.329161 -0.8612,0.444262 -1.19039,0.1789 -0.32917,-0.265356 -0.29425,-0.760731 -0.0289,-1.089921 0.26538,-0.329161 0.66067,-0.367518 0.98986,-0.102157 0.32918,0.265356 0.49479,0.683995 0.22943,1.013178 z" />
    </clipPath>
  </defs>
  <g
     inkscape:label="Layer 1"
     inkscape:groupmode="layer"
     id="layer1"
     transform="translate(-439.54071,-295.82965)">
    <circle
       style="fill:#000000;fill-opacity:0.152797;stroke-width:3.74185;paint-order:stroke fill markers;stop-color:#000000"
       id="circle39502"
       r="31.437614"
       cy="331.93442"
       cx="473.94928" />
    <circle
       style="fill:url(#linearGradient26423);fill-opacity:1;stroke-width:3.74185;paint-order:stroke fill markers;stop-color:#000000"
       id="path342"
       r="31.437614"
       cy="329.54303"
       cx="473.39102" />
    <path
       style="fill:#2c1f38;fill-opacity:0.475348;stroke:none;stroke-width:0.264583px;stroke-linecap:butt;stroke-linejoin:miter;stroke-opacity:1"
       d="m 86.727134,107.62128 2.235731,1.53463 -2.783809,2.65637 4.926463,6.86255 -8.737743,6.50432 -4.103903,-4.73385 -1.971581,1.88349 -1.691474,-2.58034 z"
       id="path68843"
       sodipodi:nodetypes="ccccccccc"
       clip-path="url(#clipPath69399)"
       transform="matrix(3.7418412,0,0,3.7418412,171.48307,-96.754219)" />
    <g
       id="g39521"
       clip-path="url(#clipPath39525)"
       transform="matrix(3.7418412,0,0,3.7418412,171.48307,-96.754219)">
      <path
         id="path30970"
         style="fill:#af5fa4;fill-opacity:0.142033;stroke:none;stroke-width:0.264583px;stroke-linecap:butt;stroke-linejoin:miter;stroke-opacity:1"
         d="m 81.877302,109.22174 1.343748,-1.34355 0.944423,0.84988 1.24103,0.0392 -1.725936,1.99876 -0.04842,-1.49608 z m -6.144081,-2.01752 -0.04045,1.51342 0.752231,-0.80184 z m 7.487829,0.67397 -2.287151,-2.44974 4.741987,0.0482 z m -6.369752,-1.79009 2.908005,3.19664 2.167274,-2.45111 -3.072829,0.0259 0.008,-0.81039 z"
         sodipodi:nodetypes="ccccccccccccccccccccc" />
      <path
         style="fill:#a270a5;fill-opacity:0.208751;stroke:none;stroke-width:0.264583px;stroke-linecap:butt;stroke-linejoin:miter;stroke-opacity:1"
         d="m 74.173975,108.55041 h 5.075352 l -2.599716,2.59972 z"
         id="path33321" />
      <path
         style="fill:#7e5081;fill-opacity:0.197313;stroke:none;stroke-width:0.264583px;stroke-linecap:butt;stroke-linejoin:miter;stroke-opacity:1"
         d="m 83.13821,112.06589 h 5.075352 l -2.599716,-2.59972 z"
         id="path38774" />
      <path
         id="path39506"
         style="fill:#915397;fill-opacity:0.209768;stroke:none;stroke-width:0.264583px;stroke-linecap:butt;stroke-linejoin:miter;stroke-opacity:1"
         d="m 76.885744,110.7002 1.343749,1.34355 0.944423,-0.84988 1.241029,-0.0392 -1.725936,-1.99876 -0.04842,1.49608 z m -6.144081,2.01752 -0.04045,-1.51342 0.752231,0.80184 z m 7.48783,-0.67397 -2.287151,2.44974 4.741987,-0.0482 z m -6.369753,1.79009 2.908005,-3.19664 2.167275,2.45111 -3.072829,-0.0259 0.008,0.81039 z"
         sodipodi:nodetypes="ccccccccccccccccccccc" />
      <path
         id="path39508"
         style="fill:#6f5397;fill-opacity:0.119606;stroke:none;stroke-width:0.264583px;stroke-linecap:butt;stroke-linejoin:miter;stroke-opacity:1"
         d="m 83.973101,116.36103 -1.343748,-1.34355 -0.944423,0.84988 -1.24103,0.0392 1.725936,1.99876 0.04842,-1.49608 z m 6.144081,-2.01752 0.04045,1.51342 -0.752231,-0.80184 z m -7.487829,0.67397 2.287151,-2.44974 -4.741987,0.0482 z m 6.369752,-1.79009 -2.908005,3.19664 -2.167274,-2.45111 3.072829,0.0259 -0.008,-0.81039 z"
         sodipodi:nodetypes="ccccccccccccccccccccc" />
      <path
         id="path39510"
         style="fill:#6f5397;fill-opacity:0.119606;stroke:none;stroke-width:0.264583px;stroke-linecap:butt;stroke-linejoin:miter;stroke-opacity:1"
         d="m 75.518678,118.56767 -1.343748,-1.34355 -0.944423,0.84988 -1.24103,0.0392 1.725936,1.99876 0.04842,-1.49608 z m 6.144081,-2.01752 0.04045,1.51342 -0.752231,-0.80184 z m -7.487829,0.67397 2.28715,-2.44974 -4.741986,0.0482 z m 6.369752,-1.79009 -2.908005,3.19664 -2.167275,-2.45111 3.072829,0.0259 -0.008,-0.81039 z"
         sodipodi:nodetypes="ccccccccccccccccccccc" />
      <path
         style="fill:#a270a5;fill-opacity:0.0460577;stroke:none;stroke-width:0.264583px;stroke-linecap:butt;stroke-linejoin:miter;stroke-opacity:1"
         d="m 83.571745,120.11196 h 5.075352 l -2.599716,-2.59972 z"
         id="path39512" />
    </g>
    <path
       sodipodi:type="star"
       style="fill:url(#radialGradient40426);fill-opacity:1;stroke:none;stroke-width:1;stroke-opacity:1;paint-order:stroke fill markers;stop-color:#000000"
       id="path40418"
       inkscape:flatsided="false"
       sodipodi:sides="4"
       sodipodi:cx="-63.547203"
       sodipodi:cy="14.308595"
       sodipodi:r1="12.63219"
       sodipodi:r2="3.2977281"
       sodipodi:arg1="0.0087517176"
       sodipodi:arg2="0.79414988"
       inkscape:rounded="0.09"
       inkscape:randomized="0"
       d="m -50.915497,14.419147 c -0.0083,0.950453 -9.642403,1.575422 -10.320357,2.241612 -0.677954,0.66619 -1.471448,10.28786 -2.421901,10.279542 -0.950453,-0.0083 -1.575422,-9.642403 -2.241612,-10.320357 -0.66619,-0.677954 -10.28786,-1.471448 -10.279542,-2.421901 0.0083,-0.950453 9.642403,-1.575422 10.320357,-2.241612 0.677953,-0.66619 1.471448,-10.2878606 2.421901,-10.2795423 0.950453,0.00832 1.575422,9.6424033 2.241612,10.3203573 0.66619,0.677953 10.28786,1.471448 10.279542,2.421901 z"
       transform="matrix(0.27023663,0,0,0.27023663,467.80025,312.73027)"
       inkscape:transform-center-x="-0.63563339"
       inkscape:transform-center-y="-0.62463203" />
    <path
       sodipodi:type="star"
       style="fill:url(#radialGradient45260);fill-opacity:1;stroke:none;stroke-width:1;stroke-opacity:1;paint-order:stroke fill markers;stop-color:#000000"
       id="path45258"
       inkscape:flatsided="false"
       sodipodi:sides="4"
       sodipodi:cx="-63.547203"
       sodipodi:cy="14.308595"
       sodipodi:r1="12.63219"
       sodipodi:r2="3.2977281"
       sodipodi:arg1="0.0087517176"
       sodipodi:arg2="0.79414988"
       inkscape:rounded="0.09"
       inkscape:randomized="0"
       d="m -50.915497,14.419147 c -0.0083,0.950453 -9.642403,1.575422 -10.320357,2.241612 -0.677954,0.66619 -1.471448,10.28786 -2.421901,10.279542 -0.950453,-0.0083 -1.575422,-9.642403 -2.241612,-10.320357 -0.66619,-0.677954 -10.28786,-1.471448 -10.279542,-2.421901 0.0083,-0.950453 9.642403,-1.575422 10.320357,-2.241612 0.677953,-0.66619 1.471448,-10.2878606 2.421901,-10.2795423 0.950453,0.00832 1.575422,9.6424033 2.241612,10.3203573 0.66619,0.677953 10.28786,1.471448 10.279542,2.421901 z"
       transform="matrix(0.20463258,0,0,0.20463258,497.40361,302.85746)"
       inkscape:transform-center-x="-0.48133199"
       inkscape:transform-center-y="-0.47299819" />
    <path
       sodipodi:type="star"
       style="fill:url(#radialGradient45264);fill-opacity:1;stroke:none;stroke-width:1;stroke-opacity:1;paint-order:stroke fill markers;stop-color:#000000"
       id="path45262"
       inkscape:flatsided="false"
       sodipodi:sides="4"
       sodipodi:cx="-63.547203"
       sodipodi:cy="14.308595"
       sodipodi:r1="12.63219"
       sodipodi:r2="3.2977281"
       sodipodi:arg1="0.0087517176"
       sodipodi:arg2="0.79414988"
       inkscape:rounded="0.09"
       inkscape:randomized="0"
       d="m -50.915497,14.419147 c -0.0083,0.950453 -9.642403,1.575422 -10.320357,2.241612 -0.677954,0.66619 -1.471448,10.28786 -2.421901,10.279542 -0.950453,-0.0083 -1.575422,-9.642403 -2.241612,-10.320357 -0.66619,-0.677954 -10.28786,-1.471448 -10.279542,-2.421901 0.0083,-0.950453 9.642403,-1.575422 10.320357,-2.241612 0.677953,-0.66619 1.471448,-10.2878606 2.421901,-10.2795423 0.950453,0.00832 1.575422,9.6424033 2.241612,10.3203573 0.66619,0.677953 10.28786,1.471448 10.279542,2.421901 z"
       transform="matrix(0.20463258,0,0,0.20463258,474.75301,350.98233)"
       inkscape:transform-center-x="-0.48133138"
       inkscape:transform-center-y="-0.47299513" />
    <g
       id="g68841"
       transform="matrix(3.7418412,0,0,3.7418412,241.71477,-112.64279)">
      <path
         id="path51934"
         style="fill:#7598a0;fill-opacity:1;stroke-width:1.371;paint-order:stroke fill markers;stop-color:#000000"
         d="m 56.090281,118.16803 c -0.02167,-0.48009 0.514654,-0.63935 0.55846,-0.7628 -0.773922,-0.60732 -0.423638,-0.89474 0.280843,-1.35617 -0.540919,-0.9606 0.287656,-1.59208 1.025757,-1.61709 0.137147,-1.29415 0.82446,-0.89864 1.402026,-1.0488 0.312618,-0.76808 0.959838,-0.75856 1.516299,-0.4261 0.295698,-0.0475 0.592099,-0.4736 0.901181,-0.4736 v 5.68456 z"
         sodipodi:nodetypes="ccccccccc"
         inkscape:transform-center-x="2.8426026"
         inkscape:transform-center-y="-2.8422801" />
      <path
         id="path50568"
         style="fill:#abd9d0;stroke-width:1.21918;paint-order:stroke fill markers;stop-color:#000000"
         d="m 56.719775,118.16803 a 5.0550723,5.0550723 0 0 1 5.055072,-5.05507 v 5.05507 z"
         inkscape:transform-center-x="2.5275361"
         inkscape:transform-center-y="-2.5275351" />
      <path
         id="path52559"
         style="fill:#d49266;fill-opacity:1;stroke-width:1.371;paint-order:stroke fill markers;stop-color:#000000"
         d="m 61.774847,112.48346 c 0.48009,-0.0217 0.63935,0.51466 0.7628,0.55846 0.60732,-0.77392 0.89474,-0.42363 1.35617,0.28085 0.9606,-0.54092 1.59208,0.28765 1.61709,1.02575 1.29415,0.13715 0.89864,0.82446 1.0488,1.40203 0.76808,0.31262 0.75856,0.95984 0.4261,1.5163 0.0475,0.2957 0.4736,0.5921 0.4736,0.90118 h -5.68456 z"
         sodipodi:nodetypes="ccccccccc"
         inkscape:transform-center-x="-2.8422801"
         inkscape:transform-center-y="-2.8426055" />
      <path
         id="path52561"
         style="fill:#fec38d;fill-opacity:1;stroke-width:1.21918;paint-order:stroke fill markers;stop-color:#000000"
         d="m 61.774847,113.11296 a 5.0550723,5.0550723 0 0 1 5.05507,5.05507 h -5.05507 z"
         inkscape:transform-center-x="-2.5275351"
         inkscape:transform-center-y="-2.5275351" />
      <path
         id="path52563"
         style="fill:#c06f5a;fill-opacity:1;stroke-width:1.371;paint-order:stroke fill markers;stop-color:#000000"
         d="m 67.459413,118.16803 c 0.02167,0.48009 -0.514654,0.63935 -0.55846,0.7628 0.773922,0.60732 0.423638,0.89474 -0.280843,1.35617 0.540919,0.9606 -0.287656,1.59208 -1.025757,1.61709 -0.137147,1.29415 -0.82446,0.89864 -1.402026,1.0488 -0.312618,0.76808 -0.959838,0.75856 -1.516299,0.4261 -0.295698,0.0475 -0.592099,0.4736 -0.901181,0.4736 v -5.68456 z"
         sodipodi:nodetypes="ccccccccc"
         inkscape:transform-center-x="-2.8426026"
         inkscape:transform-center-y="2.8422801" />
      <path
         id="path52565"
         style="fill:#f0a19f;fill-opacity:1;stroke-width:1.21918;paint-order:stroke fill markers;stop-color:#000000"
         d="m 66.829919,118.16803 a 5.0550723,5.0550723 0 0 1 -5.055072,5.05507 v -5.05507 z"
         inkscape:transform-center-x="-2.5275361"
         inkscape:transform-center-y="2.5275351" />
      <path
         id="path52567"
         style="fill:#5a9993;fill-opacity:1;stroke-width:1.371;paint-order:stroke fill markers;stop-color:#000000"
         d="m 61.774847,123.8526 c -0.48009,0.0217 -0.63935,-0.51466 -0.7628,-0.55846 -0.60732,0.77392 -0.89474,0.42363 -1.35617,-0.28085 -0.9606,0.54092 -1.59208,-0.28765 -1.61709,-1.02575 -1.29415,-0.13715 -0.89864,-0.82446 -1.0488,-1.40203 -0.76808,-0.31262 -0.75856,-0.95984 -0.4261,-1.5163 -0.0475,-0.2957 -0.4736,-0.5921 -0.4736,-0.90118 h 5.68456 z"
         sodipodi:nodetypes="ccccccccc"
         inkscape:transform-center-x="2.8422801"
         inkscape:transform-center-y="2.8426055" />
      <path
         id="path52569"
         style="fill:#92c7c7;fill-opacity:1;stroke-width:1.21918;paint-order:stroke fill markers;stop-color:#000000"
         d="m 61.774847,123.2231 a 5.0550723,5.0550723 0 0 1 -5.05507,-5.05507 h 5.05507 z"
         inkscape:transform-center-x="2.5275351"
         inkscape:transform-center-y="2.5275351" />
    </g>
    <path
       id="path71670"
       style="fill:#45857f;fill-opacity:0.840005;stroke-width:3.74185;paint-order:stroke fill markers;stop-color:#000000"
       d="m 468.77904,345.33413 c -1.57311,0.16876 -3.45408,-1.10316 -3.62299,-2.67628 -0.16876,-1.57307 1.23424,-2.79137 2.80731,-2.96028 1.57311,-0.16875 2.72047,0.77566 2.88938,2.34877 0.16876,1.57307 -0.50063,3.11893 -2.0737,3.28779 z"
       sodipodi:nodetypes="sssss" />
    <path
       id="path72021"
       style="fill:#c0845c;fill-opacity:0.702994;stroke-width:3.74185;paint-order:stroke fill markers;stop-color:#000000"
       d="m 487.26965,323.58671 c -0.16276,1.57374 -1.79844,3.14856 -3.37222,2.98607 -1.57374,-0.16241 -2.4731,-1.78861 -2.31063,-3.36239 0.16278,-1.57371 1.32533,-2.49922 2.89911,-2.3367 1.57374,0.16238 2.94626,1.13927 2.78374,2.71302 z"
       sodipodi:nodetypes="sssss" />
    <path
       id="path71323"
       style="fill:#45857f;fill-opacity:0.840005;stroke-width:3.74185;paint-order:stroke fill markers;stop-color:#000000"
       d="m 461.6612,337.70044 c -1.57311,0.16876 -3.45412,-1.10316 -3.62299,-2.67627 -0.16877,-1.57307 1.23424,-2.79138 2.80731,-2.96029 1.57311,-0.16875 2.72046,0.77564 2.88934,2.34875 0.16876,1.57307 -0.50059,3.11894 -2.07366,3.28781 z"
       sodipodi:nodetypes="sssss" />
    <path
       id="path72368"
       style="fill:#c0845c;fill-opacity:0.702994;stroke-width:3.74185;paint-order:stroke fill markers;stop-color:#000000"
       d="m 481.43381,317.05218 c -0.16278,1.57374 -1.79844,3.14857 -3.37224,2.98607 -1.57373,-0.1624 -2.47304,-1.78861 -2.31058,-3.36239 0.16277,-1.5737 1.32529,-2.49922 2.89906,-2.33671 1.57376,0.1624 2.94626,1.13928 2.78376,2.71303 z"
       sodipodi:nodetypes="sssss" />
    <g
       id="g72386"
       transform="matrix(3.7418412,0,0,3.7418412,171.48307,-96.754219)">
      <path
         style="fill:#2c1f38;fill-opacity:0.475348;stroke:none;stroke-width:0.264583px;stroke-linecap:butt;stroke-linejoin:miter;stroke-opacity:1"
         d="m 78.097198,118.90435 2.917714,-2.74154 c -0.242827,-0.26071 -0.307005,-0.53383 0,-0.83273 l 4.274622,-4.11115 c 0.0096,-0.45388 -0.07126,-0.7076 -0.180834,-0.89765 l -8.015795,8.23222 c 0.280618,0.19964 0.485,0.51569 1.004293,0.35085 z"
         id="path69405"
         sodipodi:nodetypes="ccccccc" />
      <g
         id="g25378"
         transform="matrix(0.81605311,-0.81605311,0.81605311,0.81605311,-66.127372,66.527649)">
        <path
           style="fill:url(#linearGradient4307);fill-opacity:1;stroke:none;stroke-width:0.264583px;stroke-linecap:butt;stroke-linejoin:miter;stroke-opacity:1"
           d="m 62.643947,118.15631 c 0.0034,0.0149 -0.01017,1.55529 -0.01017,1.55529 0,0 5.270087,0.004 5.766901,0.0113 0.496814,0.007 0.786223,-0.50591 0.785397,-0.82713 -8.26e-4,-0.32122 -0.313934,-0.74672 -0.670357,-0.75136 -0.356424,-0.005 -5.871774,0.0119 -5.871774,0.0119 z"
           id="path2482" />
        <path
           style="fill:url(#linearGradient40317);fill-opacity:1;stroke:none;stroke-width:0.264583px;stroke-linecap:butt;stroke-linejoin:miter;stroke-opacity:1"
           d="m 51.795626,118.96261 c 0.296877,0.3244 0.938658,0.94696 2.189903,1.03733 1.251245,0.0904 5.543342,0.1225 5.543342,0.1225 -0.03604,-0.37465 0.185207,-0.49745 0.555674,-0.47419 l 0.01995,-1.46642 c 0,0 -5.296875,-0.0413 -6.133117,-0.0169 -0.836241,0.0244 -2.175753,0.79768 -2.175752,0.79768 z"
           id="path1949"
           sodipodi:nodetypes="cccccsc" />
        <path
           style="fill:#f9fbfc;fill-opacity:1;stroke:none;stroke-width:0.264583px;stroke-linecap:butt;stroke-linejoin:miter;stroke-opacity:1"
           d="m 51.774336,118.93723 c 0.405732,-0.31727 1.410901,-0.92397 2.54469,-0.84731 1.026499,0.0102 5.775245,0.0184 5.775245,0.0184 l -0.0074,0.13833 c 0,0 -4.842894,-0.0145 -5.758749,-0.005 -0.933844,-0.0228 -1.525387,0.19166 -2.497467,0.76387 z"
           id="path400"
           sodipodi:nodetypes="ccccccc" />
        <rect
           style="fill:#f2d6a1;fill-opacity:0.356541;stroke:none;stroke-width:1.49458;stroke-opacity:1;paint-order:stroke fill markers;stop-color:#000000"
           id="rect22248"
           width="5.9703288"
           height="0.21587999"
           x="62.643948"
           y="118.1563" />
        <rect
           style="fill:#f2d6a1;fill-opacity:0.356541;stroke:none;stroke-width:1.49458;stroke-opacity:1;paint-order:stroke fill markers;stop-color:#000000"
           id="rect22250"
           width="5.9703288"
           height="0.21587999"
           x="62.633778"
           y="119.49572" />
        <path
           style="fill:#ae7853;fill-opacity:0.663625;stroke:none;stroke-width:0.264583px;stroke-linecap:butt;stroke-linejoin:miter;stroke-opacity:1"
           d="m 63.587983,119.49572 c 0.0341,0 0.06854,-0.39798 0.06854,-0.39798 l 4.25217,-1.8e-4 -0.0053,-0.72537 h 0.231818 l 0.340711,0.27813 0.0011,0.36543 -0.403921,0.47997 z"
           id="path22252" />
        <path
           style="fill:#e4aa70;fill-opacity:0.291824;stroke:none;stroke-width:0.264583px;stroke-linecap:butt;stroke-linejoin:miter;stroke-opacity:1"
           d="m 62.960909,118.37219 0.01956,1.12353 h 0.355606 l 0.09667,-1.12353 z"
           id="path23500" />
        <path
           id="rect14236"
           style="fill:#6f9cb5;paint-order:stroke fill markers;stop-color:#000000"
           d="m 60.094519,118.10862 2.593553,-0.0152 0.07919,0.23112 0.03219,1.17057 -0.09481,0.21649 -2.610126,0.01 z"
           sodipodi:nodetypes="ccccccc" />
        <rect
           style="fill:#457095;fill-opacity:1;stroke:none;stroke-width:0.86181;stroke-opacity:1;paint-order:stroke fill markers;stop-color:#000000"
           id="rect17825"
           width="1.6248693"
           height="0.26373911"
           x="-119.72448"
           y="60.359917"
           transform="rotate(-90)" />
        <path
           id="path19279"
           style="fill:#779db2;fill-opacity:1;stroke-width:1.09698;paint-order:stroke fill markers;stop-color:#000000"
           d="m 61.004832,119.73023 0.04365,-0.22997 0.03135,-1.18217 -0.07502,-0.21273 h 1.232472 l 0.202783,0.2059 -0.03106,1.20158 -0.171732,0.21739 z"
           sodipodi:nodetypes="ccccccccc" />
        <path
           id="rect19276"
           style="fill:#5d85a8;fill-opacity:1;stroke-width:0.86181;paint-order:stroke fill markers;stop-color:#000000"
           d="m 61.430889,119.72448 0.02694,-0.22997 0.01935,-1.18217 -0.0463,-0.21273 h 0.26374 l 0.125158,0.2059 -0.01917,1.20158 -0.105993,0.21739 z"
           sodipodi:nodetypes="ccccccccc" />
        <path
           id="path25380"
           style="fill:#8bb1c4;fill-opacity:1;stroke-width:0.86181;paint-order:stroke fill markers;stop-color:#000000"
           d="m 62.244889,119.72448 0.02694,-0.22997 0.01935,-1.18217 -0.0463,-0.21273 h 0.26374 l 0.125158,0.2059 -0.01917,1.20158 -0.105993,0.21739 z"
           sodipodi:nodetypes="ccccccccc" />
        <path
           id="rect15533"
           style="fill:#a6d2f0;fill-opacity:0.30785;paint-order:stroke fill markers;stop-color:#000000"
           d="m 60.094517,118.08963 2.593555,0.004 0.07919,0.2121 h -2.672747 z"
           sodipodi:nodetypes="ccccc" />
        <path
           id="rect17823"
           style="fill:#88acc4;fill-opacity:0.217127;paint-order:stroke fill markers;stop-color:#000000"
           d="m 60.085262,119.50709 2.714194,-0.012 -0.09481,0.21651 -2.619383,0.0114 z"
           sodipodi:nodetypes="ccccc" />
      </g>
    </g>
    <path
       id="circle70695"
       style="fill:#6c9098;fill-opacity:0.685429;stroke-width:3.74185;paint-order:stroke fill markers;stop-color:#000000"
       d="m 470.60009,316.34692 c -3e-5,1.58212 -1.46556,3.31662 -3.0477,3.31662 -1.58212,0 -2.64371,-1.52514 -2.64371,-3.10726 0,-1.58213 1.06159,-2.62214 2.64371,-2.62214 1.58214,0 3.0477,0.83065 3.0477,2.41278 z"
       sodipodi:nodetypes="sssss" />
    <path
       id="path71321"
       style="fill:#6299a4;fill-opacity:0.685429;stroke-width:3.74185;paint-order:stroke fill markers;stop-color:#000000"
       d="m 462.05256,326.59167 c -1.57306,0.16875 -3.4541,-1.10318 -3.62297,-2.67628 -0.16874,-1.57307 1.23423,-2.79137 2.80733,-2.96028 1.57306,-0.16877 2.72047,0.77564 2.88933,2.34875 0.16875,1.57307 -0.50058,3.11894 -2.07369,3.28781 z"
       sodipodi:nodetypes="sssss" />
    <path
       id="path71672"
       style="fill:#ad624f;fill-opacity:0.727066;stroke-width:3.74185;paint-order:stroke fill markers;stop-color:#000000"
       d="m 479.11693,344.03908 c -1.57307,0.16877 -3.45409,-1.10316 -3.62296,-2.67627 -0.16876,-1.57307 1.23421,-2.79138 2.80732,-2.96029 1.57306,-0.16876 2.72047,0.77565 2.88933,2.34875 0.16876,1.57307 -0.50059,3.11894 -2.07369,3.28781 z"
       sodipodi:nodetypes="sssss" />
    <path
       id="path72019"
       style="fill:#ad624f;fill-opacity:0.619589;stroke-width:3.74185;paint-order:stroke fill markers;stop-color:#000000"
       d="m 487.47732,334.25225 c -0.16276,1.57376 -1.79844,3.14858 -3.37222,2.98607 -1.57374,-0.16239 -2.47305,-1.7886 -2.31058,-3.36237 0.16277,-1.57371 1.32529,-2.49922 2.89907,-2.33671 1.57373,0.1624 2.94624,1.13928 2.78373,2.71301 z"
       sodipodi:nodetypes="sssss" />
    <rect
       style="fill:#53777a;fill-opacity:0.498601;stroke:none;stroke-width:1;stroke-opacity:1;paint-order:stroke fill markers;stop-color:#000000"
       id="rect72440"
       width="1.3837454"
       height="2.1539896"
       x="77.734634"
       y="111.43599"
       clip-path="url(#clipPath72651)"
       transform="matrix(3.7418412,0,0,3.7418412,171.48307,-96.754219)" />
    <rect
       style="fill:#87c2c7;fill-opacity:0.498601;stroke:none;stroke-width:1;stroke-opacity:1;paint-order:stroke fill markers;stop-color:#000000"
       id="rect72707"
       width="2.2619591"
       height="1.0820699"
       x="78.08139"
       y="109.2086"
       clip-path="url(#clipPath72819)"
       transform="matrix(3.7418412,0,0,3.7418412,171.48307,-96.754219)" />
    <rect
       style="fill:#9d5a49;fill-opacity:0.287475;stroke:none;stroke-width:1;stroke-opacity:1;paint-order:stroke fill markers;stop-color:#000000"
       id="rect72823"
       width="4.0573454"
       height="2.1740787"
       x="138.33006"
       y="22.445213"
       transform="matrix(2.6458813,2.6458813,-2.6458813,2.6458813,171.48307,-96.754219)"
       clip-path="url(#clipPath73313)" />
  </g>
</svg>
