<?xml version="1.0" encoding="UTF-8" standalone="no"?>
<!-- Created with Inkscape (http://www.inkscape.org/) -->

<svg
   width="200"
   height="200"
   viewBox="0 0 52.916666 52.916666"
   version="1.1"
   id="svg3434"
   inkscape:version="1.2.2 (b0a8486541, 2022-12-01)"
   sodipodi:docname="border.svg"
   xmlns:inkscape="http://www.inkscape.org/namespaces/inkscape"
   xmlns:sodipodi="http://sodipodi.sourceforge.net/DTD/sodipodi-0.dtd"
   xmlns="http://www.w3.org/2000/svg"
   xmlns:svg="http://www.w3.org/2000/svg">
  <sodipodi:namedview
     id="namedview3436"
     pagecolor="#717171"
     bordercolor="#666666"
     borderopacity="1.0"
     inkscape:showpageshadow="2"
     inkscape:pageopacity="0"
     inkscape:pagecheckerboard="true"
     inkscape:deskcolor="#d1d1d1"
     inkscape:document-units="px"
     showgrid="false"
     inkscape:zoom="4.7572176"
     inkscape:cx="13.032828"
     inkscape:cy="98.797247"
     inkscape:window-width="3072"
     inkscape:window-height="1659"
     inkscape:window-x="0"
     inkscape:window-y="0"
     inkscape:window-maximized="1"
     inkscape:current-layer="layer1"
     showguides="true" />
  <defs
     id="defs3431" />
  <g
     inkscape:label="Layer 1"
     inkscape:groupmode="layer"
     id="layer1">
    <g
       id="g5308"
       transform="matrix(0.95976532,0,0,0.95976532,-154.1292,5.495064)"
       style="fill:#ffffff;fill-opacity:0.2">
      <path
         id="path4402"
         style="opacity:0.756021;fill:#ffffff;fill-opacity:0.2;stroke-width:0.675502;-inkscape-stroke:none;paint-order:stroke fill markers;stop-color:#000000"
         inkscape:transform-center-x="-2.1823537"
         inkscape:transform-center-y="-3.7799391"
         d="m 175.09969,-100.3062 c -0.21557,0.12437 -0.39462,0.30328 -0.51918,0.518743 -0.39186,0.67849 -0.15941,1.546191 0.51916,1.937915 0.67849,0.391867 1.5462,0.159411 1.93792,-0.519164 0.39161,-0.67855 0.15897,-1.546093 -0.51961,-1.937654 -0.43886,-0.25326 -0.97949,-0.2532 -1.41829,1.6e-4 z m 3.77985,-2.1823 c -0.43882,0.25333 -0.70918,0.7215 -0.70928,1.22819 -4e-5,0.78352 0.63518,1.418684 1.4187,1.418567 0.78325,-2.03e-4 1.4181,-0.635197 1.41812,-1.418447 1.8e-4,-0.78345 -0.6348,-1.41869 -1.41825,-1.41882 -0.24905,1.3e-4 -0.49368,0.0658 -0.70929,0.19051 z m -10.76083,6.425797 c -0.51868,0.304511 -1.02435,0.620055 -1.45389,0.884159 l -3.26251,1.883606 0.62865,1.088843 c 0.3546,-0.20437 3.78049,-2.183042 4.07164,-2.350761 2.52303,-1.730677 3.62865,1.535626 3.32292,-2.2616 -0.0782,-0.971816 -1.75078,-0.157779 -3.30681,0.755753 z m 6.98087,0.120892 c -0.67848,0.391699 -0.91095,1.259266 -0.51922,1.937731 0.3917,0.678486 1.25927,0.91095 1.93774,0.519214 0.67848,-0.391703 0.91094,-1.259269 0.51921,-1.937732 -0.3917,-0.678479 -1.25927,-0.910943 -1.93773,-0.519213 z m 7.55969,-4.364589 c -0.67848,0.3917 -0.91094,1.259267 -0.51921,1.937729 0.3917,0.678479 1.25927,0.910943 1.93773,0.519214 0.67848,-0.391703 0.91094,-1.25927 0.51921,-1.937732 -0.3917,-0.678481 -1.25927,-0.910941 -1.93773,-0.519211 z m -3.7797,6.54713 c -0.43882,0.253333 -0.70918,0.721496 -0.70928,1.228187 -4e-5,0.783522 0.63518,1.418685 1.4187,1.418568 0.78325,-2.03e-4 1.4181,-0.635197 1.41812,-1.418444 -6e-5,-0.783175 -0.63482,-1.418109 -1.418,-1.418378 -0.2491,-4.4e-5 -0.49382,0.06551 -0.70954,0.190067 z m 3.77984,-2.182295 c -0.21553,0.124533 -0.3945,0.303595 -0.51892,0.519191 -0.3916,0.678323 -0.15931,1.545667 0.5189,1.937468 0.67849,0.391867 1.5462,0.159411 1.93792,-0.519164 0.39186,-0.678494 0.15941,-1.546194 -0.51917,-1.937916 -0.43902,-0.25335 -0.97986,-0.253191 -1.41873,4.21e-4 z m 4.30491,3.093784 c -0.0525,0.03566 -0.10234,0.08627 -0.14848,0.153148 -2.16337,3.135634 0.42682,0.859993 1.7465,3.620327 0.31787,0.549359 1.98097,3.432289 2.35076,4.071637 l 1.08929,-0.628902 -1.88361,-3.262501 c -0.89978,-1.663096 -2.36639,-4.488657 -3.15446,-3.953709 z"
         transform="rotate(30)" />
      <path
         id="path4572"
         style="opacity:0.756021;fill:#ffffff;fill-opacity:0.2;stroke-width:0.675502;-inkscape-stroke:none;paint-order:stroke fill markers;stop-color:#000000"
         inkscape:transform-center-x="2.1823545"
         inkscape:transform-center-y="-3.7799392"
         d="m 174.52216,0.68212764 c 0.24887,-7.742e-5 0.49339,0.0653382 0.70899,0.18965462 0.67861,0.39165954 0.91115,1.25933564 0.51936,1.93786364 -0.39166,0.6786118 -1.25935,0.911154 -1.93787,0.5193508 -0.67842,-0.3918366 -0.91072,-1.2594708 -0.51884,-1.9378626 0.25344,-0.43875961 0.72167,-0.70902265 1.22836,-0.70900646 z m -4.3646,-2.24e-6 c 0.5067,-1.978e-5 0.97492,0.27024733 1.22835,0.7090037 0.3918,0.6785283 0.15926,1.5462064 -0.51934,1.9378651 -0.67842,0.3914492 -1.54571,0.1589533 -1.93736,-0.5193511 -0.39188,-0.6783976 -0.15959,-1.5460216 0.51884,-1.9378592 0.21574,-0.12441241 0.46043,-0.18985552 0.70951,-0.1896585 z m 12.53205,0.18448845 c 0.60145,0.004374 1.19714,0.0248084 1.70119,0.0387591 l 3.76722,-4.35e-6 -1e-5,1.2572907 c -0.40927,3.104e-4 -4.36552,-3.248e-4 -4.70152,1.3e-6 -3.05035,-0.2372952 -2.37469,3.144216 -4.00853,-0.2971432 -0.41815,-0.88073724 1.43733,-1.01203052 3.24165,-0.99890355 z m -5.98516,3.59513055 c 0.78343,-1.87e-5 1.41854,0.6350813 1.41852,1.4185143 2e-5,0.7834361 -0.63508,1.4185408 -1.41852,1.4185225 -0.78344,1.52e-5 -1.41853,-0.635089 -1.41852,-1.4185202 -2e-5,-0.78343 0.63509,-1.4185347 1.41852,-1.4185166 z m -8.72918,0 c 0.78343,-1.78e-5 1.41853,0.6350872 1.41851,1.4185176 2e-5,0.78343 -0.63508,1.4185348 -1.41851,1.4185175 -0.78343,1.52e-5 -1.41853,-0.6350898 -1.41852,-1.4185201 -2e-5,-0.7834318 0.63509,-1.4185331 1.41852,-1.418515 z m 6.54688,3.7801309 c 0.5067,-1.71e-5 0.97492,0.2702439 1.22835,0.7090012 0.3918,0.6785299 0.15926,1.5462075 -0.51935,1.9378655 -0.67841,0.39145 -1.54571,0.158954 -1.93735,-0.519348 -0.39153,-0.6782796 -0.15928,-1.5455285 0.51884,-1.9373515 0.2157,-0.1245881 0.46041,-0.1901767 0.70951,-0.1901672 z m -4.36458,-2.9e-6 c 0.24892,8.38e-5 0.49344,0.065671 0.70899,0.1901726 0.6783,0.391645 0.9108,1.2589319 0.51935,1.937347 -0.39165,0.678611 -1.25934,0.911154 -1.93787,0.51935 -0.6786,-0.391663 -0.91115,-1.259338 -0.51934,-1.9378692 0.25353,-0.4389175 0.72199,-0.7091998 1.22887,-0.7090004 z m -2.18127,4.8317506 c 0.0633,0.0046 0.13176,0.02355 0.20516,0.05839 3.44135,1.633854 0.0604,0.958186 0.29765,4.008545 -6e-4,0.634694 5.7e-4,3.962935 0,4.701521 h -1.2578 v -3.767214 c -0.0523,-1.890173 -0.19497,-5.070486 0.75499,-5.001242 z" />
      <path
         id="path4574"
         style="opacity:0.756021;fill:#ffffff;fill-opacity:0.2;stroke-width:0.675502;-inkscape-stroke:none;paint-order:stroke fill markers;stop-color:#000000"
         inkscape:transform-center-x="-2.1823555"
         inkscape:transform-center-y="3.7799391"
         d="m 201.79388,43.002031 c -0.24887,7.7e-5 -0.49339,-0.06534 -0.70899,-0.189655 -0.67861,-0.391659 -0.91115,-1.259336 -0.51936,-1.937863 0.39166,-0.678612 1.25935,-0.911154 1.93787,-0.519351 0.67842,0.391836 0.91072,1.259471 0.51883,1.937862 -0.25343,0.43876 -0.72166,0.709023 -1.22835,0.709007 z m 4.3646,2e-6 c -0.5067,2e-5 -0.97492,-0.270247 -1.22835,-0.709004 -0.3918,-0.678528 -0.15926,-1.546206 0.51934,-1.937865 0.67842,-0.391449 1.54571,-0.158953 1.93735,0.519351 0.39189,0.678398 0.1596,1.546022 -0.51883,1.93786 -0.21574,0.124412 -0.46044,0.189855 -0.70951,0.189658 z m -12.53205,-0.184488 c -0.60145,-0.0044 -1.19715,-0.02481 -1.70119,-0.03876 l -3.76722,5e-6 1e-5,-1.257291 c 0.40927,-3.1e-4 4.36552,3.25e-4 4.70152,-10e-7 3.05035,0.237295 2.37469,-3.144216 4.00853,0.297143 0.41815,0.880737 -1.43733,1.01203 -3.24165,0.998904 z m 5.98516,-3.595131 c -0.78343,1.9e-5 -1.41854,-0.635081 -1.41852,-1.418514 -2e-5,-0.783436 0.63508,-1.418541 1.41852,-1.418523 0.78343,-1.5e-5 1.41853,0.635089 1.41852,1.41852 1e-5,0.78343 -0.63509,1.418535 -1.41852,1.418517 z m 8.72918,0 c -0.78343,1.8e-5 -1.41853,-0.635087 -1.41852,-1.418518 -1e-5,-0.78343 0.63509,-1.418534 1.41852,-1.418517 0.78343,-1.5e-5 1.41853,0.63509 1.41852,1.41852 1e-5,0.783432 -0.63509,1.418533 -1.41852,1.418515 z m -6.54688,-3.780131 c -0.5067,1.7e-5 -0.97492,-0.270244 -1.22835,-0.709001 -0.3918,-0.67853 -0.15926,-1.546207 0.51935,-1.937866 0.67841,-0.391449 1.5457,-0.158953 1.93735,0.519349 0.39153,0.678279 0.15928,1.545528 -0.51884,1.937351 -0.2157,0.124588 -0.46042,0.190177 -0.70951,0.190167 z m 4.36458,3e-6 c -0.24892,-8.4e-5 -0.49344,-0.06567 -0.70899,-0.190173 -0.6783,-0.391645 -0.9108,-1.258931 -0.51936,-1.937346 0.39166,-0.678612 1.25935,-0.911154 1.93787,-0.519351 0.67861,0.391663 0.91116,1.259338 0.51935,1.93787 -0.25353,0.438917 -0.72199,0.709199 -1.22887,0.709 z m 2.18127,-4.831751 c -0.0633,-0.0046 -0.13176,-0.02355 -0.20516,-0.05839 -3.44135,-1.633853 -0.0604,-0.958185 -0.29765,-4.008545 6e-4,-0.634694 -5.7e-4,-3.962935 0,-4.701521 h 1.2578 v 3.767214 c 0.0523,1.890173 0.19497,5.070486 -0.75499,5.001242 z" />
      <path
         id="path4576"
         style="opacity:0.756021;fill:#ffffff;fill-opacity:0.2;stroke-width:0.675502;-inkscape-stroke:none;paint-order:stroke fill markers;stop-color:#000000"
         inkscape:transform-center-x="2.1823545"
         inkscape:transform-center-y="3.7799392"
         d="m 174.52216,43.002031 c 0.24887,7.7e-5 0.49339,-0.06534 0.70899,-0.189655 0.67861,-0.391659 0.91115,-1.259335 0.51936,-1.937863 -0.39166,-0.678612 -1.25935,-0.911154 -1.93787,-0.519351 -0.67842,0.391836 -0.91072,1.259471 -0.51884,1.937862 0.25344,0.43876 0.72167,0.709023 1.22836,0.709007 z m -4.3646,2e-6 c 0.5067,2e-5 0.97492,-0.270247 1.22835,-0.709004 0.3918,-0.678528 0.15926,-1.546206 -0.51934,-1.937865 -0.67842,-0.391449 -1.54571,-0.158953 -1.93736,0.519351 -0.39188,0.678398 -0.15959,1.546022 0.51884,1.93786 0.21574,0.124412 0.46043,0.189855 0.70951,0.189658 z m 12.53205,-0.184488 c 0.60145,-0.0044 1.19714,-0.02481 1.70119,-0.03876 l 3.76722,5e-6 -1e-5,-1.257291 c -0.40927,-3.1e-4 -4.36552,3.25e-4 -4.70152,-10e-7 -3.05035,0.237295 -2.37469,-3.144216 -4.00853,0.297143 -0.41815,0.880737 1.43733,1.012031 3.24165,0.998904 z m -5.98516,-3.595131 c 0.78343,1.9e-5 1.41854,-0.635081 1.41852,-1.418514 2e-5,-0.783436 -0.63508,-1.418541 -1.41852,-1.418523 -0.78344,-1.5e-5 -1.41853,0.635089 -1.41852,1.41852 -2e-5,0.78343 0.63509,1.418535 1.41852,1.418517 z m -8.72918,0 c 0.78343,1.8e-5 1.41853,-0.635087 1.41851,-1.418518 2e-5,-0.78343 -0.63508,-1.418534 -1.41851,-1.418517 -0.78343,-1.5e-5 -1.41853,0.63509 -1.41852,1.41852 -2e-5,0.783432 0.63509,1.418533 1.41852,1.418515 z m 6.54688,-3.780131 c 0.5067,1.7e-5 0.97492,-0.270244 1.22835,-0.709001 0.3918,-0.67853 0.15926,-1.546208 -0.51935,-1.937866 -0.67841,-0.39145 -1.54571,-0.158954 -1.93735,0.519348 -0.39153,0.67828 -0.15928,1.545529 0.51884,1.937352 0.2157,0.124588 0.46041,0.190177 0.70951,0.190167 z m -4.36458,3e-6 c 0.24892,-8.4e-5 0.49344,-0.06567 0.70899,-0.190173 0.6783,-0.391645 0.9108,-1.258931 0.51935,-1.937347 -0.39165,-0.678611 -1.25934,-0.911154 -1.93787,-0.51935 -0.6786,0.391663 -0.91115,1.259338 -0.51934,1.93787 0.25353,0.438917 0.72199,0.709199 1.22887,0.709 z m -2.18127,-4.831751 c 0.0633,-0.0046 0.13176,-0.02355 0.20516,-0.05839 3.44135,-1.633854 0.0604,-0.958186 0.29765,-4.008545 -6e-4,-0.634694 5.7e-4,-3.962935 0,-4.701521 h -1.2578 v 3.767214 c -0.0523,1.890173 -0.19497,5.070486 0.75499,5.001242 z" />
    </g>
  </g>
</svg>
