<?xml version="1.0" encoding="UTF-8" standalone="no"?>
<!-- Created with Inkscape (http://www.inkscape.org/) -->

<svg
   width="200"
   height="18"
   viewBox="0 0 52.916668 4.7625002"
   version="1.1"
   id="svg3456"
   inkscape:version="1.4 (e7c3feb100, 2024-10-09)"
   sodipodi:docname="swirl4.svg"
   xmlns:inkscape="http://www.inkscape.org/namespaces/inkscape"
   xmlns:sodipodi="http://sodipodi.sourceforge.net/DTD/sodipodi-0.dtd"
   xmlns="http://www.w3.org/2000/svg"
   xmlns:svg="http://www.w3.org/2000/svg">
  <sodipodi:namedview
     id="namedview3458"
     pagecolor="#ffffff"
     bordercolor="#666666"
     borderopacity="1.0"
     inkscape:showpageshadow="2"
     inkscape:pageopacity="0"
     inkscape:pagecheckerboard="true"
     inkscape:deskcolor="#d1d1d1"
     inkscape:document-units="mm"
     showgrid="false"
     inkscape:zoom="4.7572176"
     inkscape:cx="112.98621"
     inkscape:cy="19.759449"
     inkscape:window-width="1920"
     inkscape:window-height="1131"
     inkscape:window-x="0"
     inkscape:window-y="0"
     inkscape:window-maximized="1"
     inkscape:current-layer="layer1" />
  <defs
     id="defs3453" />
  <g
     inkscape:label="Layer 1"
     inkscape:groupmode="layer"
     id="layer1"
     transform="translate(298.15305,-158.21648)">
    <g
       id="g1"
       style="opacity:0.75;stroke-width:0.974951"
       transform="matrix(1.0256925,0,0,-1.0256925,1.4185322,325.59301)">
      <g
         id="g268"
         transform="matrix(0.35683258,0,0,0.35683258,-297.22751,152.52186)"
         style="font-variation-settings:normal;display:inline;opacity:1;vector-effect:none;fill:#808080;fill-opacity:1;stroke:none;stroke-width:9.96;stroke-linecap:butt;stroke-linejoin:miter;stroke-miterlimit:4;stroke-dasharray:none;stroke-dashoffset:0;stroke-opacity:1;-inkscape-stroke:none;paint-order:stroke fill markers;stop-color:#000000">
        <path
           id="path264"
           style="font-variation-settings:normal;vector-effect:none;fill:#808080;fill-opacity:1;stroke:none;stroke-width:9.96;stroke-linecap:butt;stroke-linejoin:miter;stroke-miterlimit:4;stroke-dasharray:none;stroke-dashoffset:0;stroke-opacity:1;-inkscape-stroke:none;paint-order:stroke fill markers;stop-color:#000000;stop-opacity:1"
           d="m 90.618681,21.349 c -0.660269,0.698453 -2.662679,1.240713 -3.262706,0.640686 -0.600027,-0.600027 -0.05172,-2.596098 0.640688,-3.262704 0.59511,-0.572934 1.284467,-0.745891 2.09004,-0.422224 0.337743,0.1357 0.09683,0.664619 0.158856,0.795344 0.127798,0.06788 0.634521,-0.22275 0.791991,0.151445 0.33337,0.79221 0.14476,1.501271 -0.418869,2.097453 z"
           sodipodi:nodetypes="szsscss" />
        <path
           id="path265"
           style="font-variation-settings:normal;vector-effect:none;fill:#808080;fill-opacity:1;stroke:none;stroke-width:9.96;stroke-linecap:butt;stroke-linejoin:miter;stroke-miterlimit:4;stroke-dasharray:none;stroke-dashoffset:0;stroke-opacity:1;-inkscape-stroke:none;paint-order:stroke fill markers;stop-color:#000000;stop-opacity:1"
           d="m 89.094019,26.030714 c -0.868317,-0.412088 -2.002879,-2.148885 -1.617665,-2.904977 0.385178,-0.756111 2.453023,-0.851516 3.300986,-0.39902 0.728785,0.388949 1.106341,0.991069 1.047483,1.857234 -0.02468,0.363148 -0.602158,0.297492 -0.707314,0.396882 -0.02506,0.142519 0.407944,0.534617 0.100734,0.800024 -0.650399,0.561883 -1.383038,0.601643 -2.124224,0.249857 z"
           sodipodi:nodetypes="szsscss"
           inkscape:transform-center-x="-0.77759724"
           inkscape:transform-center-y="0.44833214" />
        <path
           id="path266"
           style="font-variation-settings:normal;vector-effect:none;fill:#808080;fill-opacity:1;stroke:none;stroke-width:9.96;stroke-linecap:butt;stroke-linejoin:miter;stroke-miterlimit:4;stroke-dasharray:none;stroke-dashoffset:0;stroke-opacity:1;-inkscape-stroke:none;paint-order:stroke fill markers;stop-color:#000000;stop-opacity:1"
           d="m 84.18226,26.088904 c 0.123545,-0.953167 1.424655,-2.568967 2.262786,-2.436295 0.838138,0.132632 1.567972,2.06975 1.399706,3.016049 -0.144663,0.813315 -0.600614,1.358481 -1.442563,1.570206 -0.352997,0.08877 -0.469034,-0.480732 -0.596058,-0.550021 -0.143287,0.02021 -0.382361,0.553203 -0.729722,0.343062 -0.73539,-0.444897 -0.999637,-1.129378 -0.894149,-1.943001 z"
           sodipodi:nodetypes="szsscss"
           inkscape:transform-center-x="0.58356008"
           inkscape:transform-center-y="3.2671796" />
        <path
           id="path267"
           style="font-variation-settings:normal;vector-effect:none;fill:#808080;fill-opacity:1;stroke:none;stroke-width:9.96;stroke-linecap:butt;stroke-linejoin:miter;stroke-miterlimit:4;stroke-dasharray:none;stroke-dashoffset:0;stroke-opacity:1;-inkscape-stroke:none;paint-order:stroke fill markers;stop-color:#000000;stop-opacity:1"
           d="m 82.6123,21.424633 c 0.945168,-0.174495 2.881949,0.568858 3.012504,1.407321 0.130594,0.838458 -1.489668,2.126803 -2.442003,2.256624 -0.818516,0.111535 -1.477178,-0.155414 -1.93673,-0.891972 -0.192669,-0.308811 0.313869,-0.593787 0.340899,-0.735933 -0.06315,-0.130198 -0.643761,-0.194437 -0.550179,-0.589482 0.198134,-0.836346 0.768705,-1.297637 1.575509,-1.446558 z"
           sodipodi:nodetypes="szsscss"
           inkscape:transform-center-x="3.2686676"
           inkscape:transform-center-y="0.5765728" />
        <path
           id="path268"
           style="font-variation-settings:normal;vector-effect:none;fill:#808080;fill-opacity:1;stroke:none;stroke-width:9.96;stroke-linecap:butt;stroke-linejoin:miter;stroke-miterlimit:4;stroke-dasharray:none;stroke-dashoffset:0;stroke-opacity:1;-inkscape-stroke:none;paint-order:stroke fill markers;stop-color:#000000;stop-opacity:1"
           d="m 86.559552,18.500943 c 0.458071,0.844962 0.349706,2.916666 -0.407357,3.299969 -0.757045,0.383339 -2.483082,-0.759413 -2.900881,-1.624999 -0.35905,-0.74397 -0.30874,-1.452889 0.249725,-2.117586 0.234142,-0.278684 0.661721,0.114982 0.805261,0.09676 0.104309,-0.100296 -0.01405,-0.672336 0.390581,-0.70543 0.856636,-0.07005 1.471686,0.330013 1.862671,1.051291 z"
           sodipodi:nodetypes="szsscss"
           inkscape:transform-center-x="1.6705799"
           inkscape:transform-center-y="-3.0199293" />
      </g>
      <path
         style="font-variation-settings:normal;opacity:1;vector-effect:none;fill:#808080;fill-opacity:1;stroke:none;stroke-width:3.55408;stroke-linecap:butt;stroke-linejoin:miter;stroke-miterlimit:4;stroke-dasharray:none;stroke-dashoffset:0;stroke-opacity:1;-inkscape-stroke:none;paint-order:stroke fill markers;stop-color:#000000"
         d="m -288.66998,160.73694 c 5.41109,-0.30308 17.48534,-0.26029 19.42159,-0.26029 0.45159,0 0.45635,0.44986 -0.0324,0.45189 -1.93728,0.008 -13.97373,0.0908 -19.38913,-0.1916 z"
         id="path269"
         sodipodi:nodetypes="cssc" />
      <path
         style="font-variation-settings:normal;opacity:1;vector-effect:none;fill:#808080;fill-opacity:1;stroke:none;stroke-width:3.55408;stroke-linecap:butt;stroke-linejoin:miter;stroke-miterlimit:4;stroke-dasharray:none;stroke-dashoffset:0;stroke-opacity:1;-inkscape-stroke:none;paint-order:stroke fill markers;stop-color:#000000"
         d="m -269.28627,162.07595 c -1.30251,0.78241 -3.13111,-0.13118 -4.22539,-1.03356 -1.0943,-0.90239 -2.99831,-2.14229 -4.10006,-1.4111 -1.13214,0.75137 -0.68459,2.03982 0.20276,2.14392 0.44636,0.0523 0.79057,-0.18843 0.9146,-0.43518 0.0689,-0.1372 0.0624,-0.15318 -0.0604,-0.0166 -0.13757,0.15297 -0.40841,0.40705 -0.94798,0.26827 -0.53957,-0.13878 -0.67225,-1.07846 -0.2442,-1.4572 0.51353,-0.45439 1.27022,-0.89586 3.2596,0.71487 2.23,1.80554 4.054,2.72237 5.43282,1.71018 0.76508,-0.56164 0.29446,-0.79965 -0.2318,-0.48353 z"
         id="path270"
         sodipodi:nodetypes="sssssszsssss" />
      <circle
         style="font-variation-settings:normal;opacity:1;vector-effect:none;fill:#808080;fill-opacity:1;stroke:none;stroke-width:3.55408;stroke-linecap:butt;stroke-linejoin:miter;stroke-miterlimit:4;stroke-dasharray:none;stroke-dashoffset:0;stroke-opacity:1;-inkscape-stroke:none;paint-order:stroke fill markers;stop-color:#000000"
         id="circle270"
         cx="291.49573"
         cy="-160.7653"
         r="0.57190967"
         transform="scale(-1)" />
      <g
         id="g278"
         style="font-variation-settings:normal;opacity:1;vector-effect:none;fill:#808080;fill-opacity:1;stroke:none;stroke-width:3.037;stroke-linecap:butt;stroke-linejoin:miter;stroke-miterlimit:4;stroke-dasharray:none;stroke-dashoffset:0;stroke-opacity:1;-inkscape-stroke:none;paint-order:stroke fill markers;stop-color:#000000"
         transform="matrix(-1.1702577,0,0,1.1702577,10.214923,-31.1571)">
        <path
           style="font-variation-settings:normal;opacity:1;vector-effect:none;fill:#808080;fill-opacity:1;stroke:none;stroke-width:3.037;stroke-linecap:butt;stroke-linejoin:miter;stroke-miterlimit:4;stroke-dasharray:none;stroke-dashoffset:0;stroke-opacity:1;-inkscape-stroke:none;paint-order:stroke fill markers;stop-color:#000000;stop-opacity:1"
           d="m 217.1223,163.97588 c 4.62384,-0.25898 14.94144,-0.22242 16.59599,-0.22242 0.38589,0 0.38996,0.38441 -0.0277,0.38615 -1.65543,0.007 -11.94073,0.0776 -16.56826,-0.16373 z"
           id="path277"
           sodipodi:nodetypes="cssc" />
        <path
           style="font-variation-settings:normal;opacity:1;vector-effect:none;fill:#808080;fill-opacity:1;stroke:none;stroke-width:3.037;stroke-linecap:butt;stroke-linejoin:miter;stroke-miterlimit:4;stroke-dasharray:none;stroke-dashoffset:0;stroke-opacity:1;-inkscape-stroke:none;paint-order:stroke fill markers;stop-color:#000000;stop-opacity:1"
           d="m 233.68592,165.12008 c -1.11301,0.66858 -2.67557,-0.11209 -3.61065,-0.88319 -0.93509,-0.7711 -2.56209,-1.83061 -3.50355,-1.2058 -0.96743,0.64206 -0.58499,1.74305 0.17326,1.83201 0.38142,0.0447 0.67555,-0.16102 0.78154,-0.37187 0.0589,-0.11724 0.0533,-0.13089 -0.0516,-0.0142 -0.11755,0.13071 -0.34899,0.34783 -0.81006,0.22924 -0.46107,-0.11859 -0.57444,-0.92156 -0.20867,-1.2452 0.43882,-0.38828 1.08542,-0.76552 2.78537,0.61087 1.90556,1.54286 3.46419,2.3263 4.64241,1.46137 0.65377,-0.47993 0.25162,-0.68331 -0.19807,-0.41318 z"
           id="path278"
           sodipodi:nodetypes="sssssszsssss" />
      </g>
      <circle
         style="font-variation-settings:normal;opacity:1;vector-effect:none;fill:#808080;fill-opacity:1;stroke:none;stroke-width:3.55408;stroke-linecap:butt;stroke-linejoin:miter;stroke-miterlimit:4;stroke-dasharray:none;stroke-dashoffset:0;stroke-opacity:1;-inkscape-stroke:none;paint-order:stroke fill markers;stop-color:#000000"
         id="circle278"
         cx="-241.04839"
         cy="-160.7653"
         r="0.57190967"
         transform="scale(1,-1)" />
    </g>
  </g>
</svg>
