<?xml version="1.0" encoding="UTF-8" standalone="no"?>
<!-- Created with Inkscape (http://www.inkscape.org/) -->

<svg
   width="16"
   height="200"
   viewBox="0 0 4.2333334 52.916668"
   version="1.1"
   id="svg3456"
   inkscape:version="1.2.2 (b0a8486541, 2022-12-01)"
   sodipodi:docname="swirl-vertical.svg"
   xmlns:inkscape="http://www.inkscape.org/namespaces/inkscape"
   xmlns:sodipodi="http://sodipodi.sourceforge.net/DTD/sodipodi-0.dtd"
   xmlns="http://www.w3.org/2000/svg"
   xmlns:svg="http://www.w3.org/2000/svg">
  <sodipodi:namedview
     id="namedview3458"
     pagecolor="#797979"
     bordercolor="#666666"
     borderopacity="1.0"
     inkscape:showpageshadow="2"
     inkscape:pageopacity="0"
     inkscape:pagecheckerboard="true"
     inkscape:deskcolor="#d1d1d1"
     inkscape:document-units="mm"
     showgrid="false"
     inkscape:zoom="4.7572176"
     inkscape:cx="67.686624"
     inkscape:cy="142.73049"
     inkscape:window-width="3072"
     inkscape:window-height="1691"
     inkscape:window-x="0"
     inkscape:window-y="0"
     inkscape:window-maximized="1"
     inkscape:current-layer="layer1" />
  <defs
     id="defs3453" />
  <g
     inkscape:label="Layer 1"
     inkscape:groupmode="layer"
     id="layer1"
     transform="translate(298.26143,-157.98574)">
    <g
       id="g6204"
       transform="matrix(0,-0.41616978,0.41616978,0,-315.53096,225.09788)"
       style="font-variation-settings:normal;opacity:0.756021;vector-effect:none;fill:#ffffff;fill-opacity:1;stroke:none;stroke-width:3.25016;stroke-linecap:butt;stroke-linejoin:miter;stroke-miterlimit:4;stroke-dasharray:none;stroke-dashoffset:0;stroke-opacity:1;-inkscape-stroke:none;stop-color:#000000">
      <path
         style="font-variation-settings:normal;vector-effect:none;fill:#ffffff;fill-opacity:1;stroke:none;stroke-width:3.25016;stroke-linecap:butt;stroke-linejoin:miter;stroke-miterlimit:4;stroke-dasharray:none;stroke-dashoffset:0;stroke-opacity:1;-inkscape-stroke:none;stop-color:#000000;stop-opacity:1"
         d="m 152.32049,46.661847 c -12.27779,0.687663 -39.67433,0.590577 -44.06772,0.590577 -1.02464,0 -1.03545,-1.020717 0.0736,-1.025349 4.39569,-0.01836 31.70648,-0.20594 43.99408,0.434772 z"
         id="path6184"
         sodipodi:nodetypes="cssc" />
      <circle
         style="font-variation-settings:normal;vector-effect:none;fill:#ffffff;fill-opacity:1;stroke:none;stroke-width:3.25016;stroke-linecap:butt;stroke-linejoin:miter;stroke-miterlimit:4;stroke-dasharray:none;stroke-dashoffset:0;stroke-opacity:1;-inkscape-stroke:none;paint-order:stroke fill markers;stop-color:#000000;stop-opacity:1"
         id="circle6186"
         cx="97.581543"
         cy="46.597473"
         r="3.9164531" />
      <path
         style="font-variation-settings:normal;vector-effect:none;fill:#ffffff;fill-opacity:1;stroke:none;stroke-width:3.25016;stroke-linecap:butt;stroke-linejoin:miter;stroke-miterlimit:4;stroke-dasharray:none;stroke-dashoffset:0;stroke-opacity:1;-inkscape-stroke:none;stop-color:#000000;stop-opacity:1"
         d="m 104.21122,43.623627 c 2.95539,-1.775302 7.1045,0.297635 9.58745,2.345155 2.48296,2.047519 6.80318,4.860853 9.30305,3.201771 2.56885,-1.704865 1.55334,-4.628343 -0.46006,-4.864568 -1.01279,-0.118828 -1.79381,0.427557 -2.07525,0.987435 -0.15648,0.311299 -0.14159,0.347552 0.13698,0.0378 0.31212,-0.347061 0.92668,-0.923585 2.15097,-0.608689 1.22429,0.314896 1.52532,2.447034 0.55409,3.306405 -1.16521,1.031006 -2.88215,2.032691 -7.39607,-1.622053 -5.05989,-4.096798 -9.19855,-6.177076 -12.32709,-3.880419 -1.73597,1.274378 -0.66814,1.814414 0.52593,1.097139 z"
         id="path6188"
         sodipodi:nodetypes="sssssszsssss" />
      <circle
         style="font-variation-settings:normal;vector-effect:none;fill:#ffffff;fill-opacity:1;stroke:none;stroke-width:3.25016;stroke-linecap:butt;stroke-linejoin:miter;stroke-miterlimit:4;stroke-dasharray:none;stroke-dashoffset:0;stroke-opacity:1;-inkscape-stroke:none;paint-order:stroke fill markers;stop-color:#000000;stop-opacity:1"
         id="circle6190"
         cx="104.54912"
         cy="46.597473"
         r="1.9018438" />
      <circle
         style="font-variation-settings:normal;vector-effect:none;fill:#ffffff;fill-opacity:1;stroke:none;stroke-width:3.25016;stroke-linecap:butt;stroke-linejoin:miter;stroke-miterlimit:4;stroke-dasharray:none;stroke-dashoffset:0;stroke-opacity:1;-inkscape-stroke:none;paint-order:stroke fill markers;stop-color:#000000;stop-opacity:1"
         id="circle6192"
         cx="154.60461"
         cy="46.597473"
         r="1.2976673" />
      <g
         id="g6202"
         transform="rotate(180,97.685636,46.582425)"
         style="font-variation-settings:normal;vector-effect:none;fill:#ffffff;fill-opacity:1;stroke:none;stroke-width:3.25016;stroke-linecap:butt;stroke-linejoin:miter;stroke-miterlimit:4;stroke-dasharray:none;stroke-dashoffset:0;stroke-opacity:1;-inkscape-stroke:none;stop-color:#000000;stop-opacity:1">
        <path
           style="font-variation-settings:normal;vector-effect:none;fill:#ffffff;fill-opacity:1;stroke:none;stroke-width:3.25016;stroke-linecap:butt;stroke-linejoin:miter;stroke-miterlimit:4;stroke-dasharray:none;stroke-dashoffset:0;stroke-opacity:1;-inkscape-stroke:none;stop-color:#000000;stop-opacity:1"
           d="m 152.3205,46.661853 c -12.27779,0.68767 -39.67433,0.59058 -44.06772,0.59058 -1.02464,0 -1.03545,-1.02072 0.0736,-1.02535 4.39569,-0.0184 31.70648,-0.20594 43.99408,0.43477 z"
           id="path6194"
           sodipodi:nodetypes="cssc" />
        <path
           style="font-variation-settings:normal;vector-effect:none;fill:#ffffff;fill-opacity:1;stroke:none;stroke-width:3.25016;stroke-linecap:butt;stroke-linejoin:miter;stroke-miterlimit:4;stroke-dasharray:none;stroke-dashoffset:0;stroke-opacity:1;-inkscape-stroke:none;stop-color:#000000;stop-opacity:1"
           d="m 104.21122,43.623625 c 2.95539,-1.7753 7.1045,0.29764 9.58745,2.34516 2.48296,2.04752 6.80318,4.86085 9.30305,3.20177 2.56885,-1.70487 1.55334,-4.62835 -0.46006,-4.86457 -1.01279,-0.11883 -1.79381,0.42756 -2.07525,0.98743 -0.15648,0.3113 -0.14159,0.34756 0.13698,0.0378 0.31212,-0.34706 0.92668,-0.92358 2.15097,-0.60868 1.22429,0.31489 1.52532,2.44703 0.55409,3.3064 -1.16521,1.03101 -2.88215,2.03269 -7.39607,-1.62205 -5.05989,-4.0968 -9.19855,-6.17708 -12.32709,-3.88042 -1.73597,1.27438 -0.66814,1.81441 0.52593,1.09714 z"
           id="path6196"
           sodipodi:nodetypes="sssssszsssss" />
        <circle
           style="font-variation-settings:normal;vector-effect:none;fill:#ffffff;fill-opacity:1;stroke:none;stroke-width:3.25016;stroke-linecap:butt;stroke-linejoin:miter;stroke-miterlimit:4;stroke-dasharray:none;stroke-dashoffset:0;stroke-opacity:1;-inkscape-stroke:none;paint-order:stroke fill markers;stop-color:#000000;stop-opacity:1"
           id="circle6198"
           cx="104.54912"
           cy="46.597473"
           r="1.9018438" />
        <circle
           style="font-variation-settings:normal;vector-effect:none;fill:#ffffff;fill-opacity:1;stroke:none;stroke-width:3.25016;stroke-linecap:butt;stroke-linejoin:miter;stroke-miterlimit:4;stroke-dasharray:none;stroke-dashoffset:0;stroke-opacity:1;-inkscape-stroke:none;paint-order:stroke fill markers;stop-color:#000000;stop-opacity:1"
           id="circle6200"
           cx="154.60461"
           cy="46.597473"
           r="1.2976673" />
      </g>
    </g>
  </g>
</svg>
