<?xml version="1.0" encoding="UTF-8" standalone="no"?>
<!-- Created with Inkscape (http://www.inkscape.org/) -->

<svg
   width="200"
   height="12"
   viewBox="0 0 52.916668 3.1750001"
   version="1.1"
   id="svg3456"
   inkscape:version="1.4 (e7c3feb100, 2024-10-09)"
   sodipodi:docname="swirl3.svg"
   xmlns:inkscape="http://www.inkscape.org/namespaces/inkscape"
   xmlns:sodipodi="http://sodipodi.sourceforge.net/DTD/sodipodi-0.dtd"
   xmlns="http://www.w3.org/2000/svg"
   xmlns:svg="http://www.w3.org/2000/svg">
  <sodipodi:namedview
     id="namedview3458"
     pagecolor="#ffffff"
     bordercolor="#666666"
     borderopacity="1.0"
     inkscape:showpageshadow="2"
     inkscape:pageopacity="0"
     inkscape:pagecheckerboard="true"
     inkscape:deskcolor="#d1d1d1"
     inkscape:document-units="mm"
     showgrid="false"
     inkscape:zoom="9.5144352"
     inkscape:cx="107.57338"
     inkscape:cy="13.348139"
     inkscape:window-width="3840"
     inkscape:window-height="2091"
     inkscape:window-x="0"
     inkscape:window-y="0"
     inkscape:window-maximized="1"
     inkscape:current-layer="layer1" />
  <defs
     id="defs3453" />
  <g
     inkscape:label="Layer 1"
     inkscape:groupmode="layer"
     id="layer1"
     transform="translate(298.15305,-158.21648)">
    <g
       id="g159"
       style="font-variation-settings:normal;display:inline;opacity:0.75;vector-effect:none;fill:#808080;fill-opacity:1;stroke:none;stroke-width:3.50091;stroke-linecap:butt;stroke-linejoin:miter;stroke-miterlimit:4;stroke-dasharray:none;stroke-dashoffset:0;stroke-opacity:1;-inkscape-stroke:none;paint-order:stroke fill markers;stop-color:#000000;stop-opacity:1"
       transform="matrix(1.0412692,0,0,1.0412692,-518.87978,100.09488)">
      <circle
         style="font-variation-settings:normal;opacity:0.756021;vector-effect:none;fill:#808080;fill-opacity:1;stroke:none;stroke-width:3.50091;stroke-linecap:butt;stroke-linejoin:miter;stroke-miterlimit:4;stroke-dasharray:none;stroke-dashoffset:0;stroke-opacity:1;-inkscape-stroke:none;paint-order:stroke fill markers;stop-color:#000000;stop-opacity:1"
         id="circle4965"
         cx="262.53656"
         cy="57.284252"
         r="0.24771659" />
      <path
         style="font-variation-settings:normal;opacity:0.756021;vector-effect:none;fill:#808080;fill-opacity:1;stroke:none;stroke-width:3.50091;stroke-linecap:butt;stroke-linejoin:miter;stroke-miterlimit:4;stroke-dasharray:none;stroke-dashoffset:0;stroke-opacity:1;-inkscape-stroke:none;paint-order:stroke fill markers;stop-color:#000000;stop-opacity:1"
         d="m 261.5285,57.278536 c -6.07059,0.179791 -19.61647,0.154407 -21.78873,0.154407 -0.50662,0 -0.51196,-0.266867 0.0364,-0.268077 2.17339,-0.0048 15.67687,-0.05384 21.75232,0.11367 z"
         id="path6194"
         sodipodi:nodetypes="cssc" />
      <circle
         style="font-variation-settings:normal;opacity:0.756021;vector-effect:none;fill:#808080;fill-opacity:1;stroke:none;stroke-width:3.50091;stroke-linecap:butt;stroke-linejoin:miter;stroke-miterlimit:4;stroke-dasharray:none;stroke-dashoffset:0;stroke-opacity:1;-inkscape-stroke:none;paint-order:stroke fill markers;stop-color:#000000;stop-opacity:1"
         id="circle6467"
         cx="-212.23991"
         cy="57.284252"
         transform="scale(-1,1)"
         r="0.24771659" />
      <path
         style="font-variation-settings:normal;opacity:0.756021;vector-effect:none;fill:#808080;fill-opacity:1;stroke:none;stroke-width:3.50091;stroke-linecap:butt;stroke-linejoin:miter;stroke-miterlimit:4;stroke-dasharray:none;stroke-dashoffset:0;stroke-opacity:1;-inkscape-stroke:none;paint-order:stroke fill markers;stop-color:#000000;stop-opacity:1"
         d="m 213.21435,57.278536 c 6.0706,0.179791 19.61648,0.154407 21.78874,0.154407 0.50661,0 0.51196,-0.266867 -0.0364,-0.268077 -2.17339,-0.0048 -15.67687,-0.05384 -21.75232,0.11367 z"
         id="path6471"
         sodipodi:nodetypes="cssc" />
      <path
         id="path144-3"
         style="font-variation-settings:normal;display:inline;vector-effect:none;fill:#808080;fill-opacity:1;stroke:none;stroke-width:3.50091;stroke-linecap:butt;stroke-linejoin:miter;stroke-miterlimit:4;stroke-dasharray:none;stroke-dashoffset:0;stroke-opacity:1;-inkscape-stroke:none;paint-order:stroke fill markers;stop-color:#000000;stop-opacity:1"
         d="m 238.3817,56.961768 c -0.1681,0.177814 -0.67788,0.315864 -0.83063,0.163108 -0.15276,-0.152756 -0.0132,-0.66092 0.16311,-0.830625 0.1515,-0.145859 0.327,-0.189892 0.53208,-0.107492 0.086,0.03455 0.0246,0.169201 0.0404,0.20248 0.0326,0.01728 0.16154,-0.05671 0.20163,0.03856 0.0849,0.201681 0.0368,0.382196 -0.10664,0.533973 z"
         sodipodi:nodetypes="szsscss" />
      <path
         id="path145-7"
         style="font-variation-settings:normal;display:inline;vector-effect:none;fill:#808080;fill-opacity:1;stroke:none;stroke-width:3.50091;stroke-linecap:butt;stroke-linejoin:miter;stroke-miterlimit:4;stroke-dasharray:none;stroke-dashoffset:0;stroke-opacity:1;-inkscape-stroke:none;paint-order:stroke fill markers;stop-color:#000000;stop-opacity:1"
         d="m 237.99355,58.153649 c -0.22107,-0.104911 -0.50991,-0.547068 -0.41183,-0.739556 0.0981,-0.192491 0.62449,-0.21678 0.84037,-0.101583 0.18554,0.09902 0.28164,0.252309 0.26667,0.472819 -0.006,0.09245 -0.1533,0.07574 -0.18008,0.101039 -0.006,0.03629 0.10386,0.136104 0.0256,0.203672 -0.16558,0.143044 -0.35209,0.153167 -0.54078,0.06361 z"
         sodipodi:nodetypes="szsscss"
         inkscape:transform-center-x="-0.64923774"
         inkscape:transform-center-y="0.37432266" />
      <path
         id="path146-4"
         style="font-variation-settings:normal;display:inline;vector-effect:none;fill:#808080;fill-opacity:1;stroke:none;stroke-width:3.50091;stroke-linecap:butt;stroke-linejoin:miter;stroke-miterlimit:4;stroke-dasharray:none;stroke-dashoffset:0;stroke-opacity:1;-inkscape-stroke:none;paint-order:stroke fill markers;stop-color:#000000;stop-opacity:1"
         d="m 236.74309,58.168463 c 0.0315,-0.24266 0.36271,-0.654013 0.57608,-0.620237 0.21337,0.03377 0.39917,0.526921 0.35633,0.767832 -0.0368,0.207055 -0.15291,0.345844 -0.36724,0.399746 -0.0899,0.0226 -0.11942,-0.122386 -0.15176,-0.140026 -0.0365,0.0052 -0.0973,0.140836 -0.18577,0.08734 -0.18722,-0.113262 -0.25449,-0.287519 -0.22764,-0.494652 z"
         sodipodi:nodetypes="szsscss"
         inkscape:transform-center-x="0.48722295"
         inkscape:transform-center-y="2.7278336" />
      <path
         id="path147-5"
         style="font-variation-settings:normal;display:inline;vector-effect:none;fill:#808080;fill-opacity:1;stroke:none;stroke-width:3.50091;stroke-linecap:butt;stroke-linejoin:miter;stroke-miterlimit:4;stroke-dasharray:none;stroke-dashoffset:0;stroke-opacity:1;-inkscape-stroke:none;paint-order:stroke fill markers;stop-color:#000000;stop-opacity:1"
         d="m 236.34341,56.981023 c 0.24062,-0.04443 0.7337,0.144821 0.76694,0.35828 0.0332,0.213456 -0.37925,0.541444 -0.6217,0.574495 -0.20838,0.0284 -0.37606,-0.03957 -0.49305,-0.227081 -0.049,-0.07862 0.0799,-0.151167 0.0868,-0.187355 -0.016,-0.03315 -0.16389,-0.0495 -0.14006,-0.150071 0.0504,-0.212919 0.19569,-0.330355 0.40109,-0.368268 z"
         sodipodi:nodetypes="szsscss"
         inkscape:transform-center-x="2.7290558"
         inkscape:transform-center-y="0.48139371" />
      <path
         id="path148-2"
         style="font-variation-settings:normal;display:inline;vector-effect:none;fill:#808080;fill-opacity:1;stroke:none;stroke-width:3.50091;stroke-linecap:butt;stroke-linejoin:miter;stroke-miterlimit:4;stroke-dasharray:none;stroke-dashoffset:0;stroke-opacity:1;-inkscape-stroke:none;paint-order:stroke fill markers;stop-color:#000000;stop-opacity:1"
         d="m 237.34831,56.236705 c 0.11662,0.215112 0.089,0.74253 -0.1037,0.840112 -0.19274,0.09759 -0.63215,-0.193333 -0.73852,-0.413695 -0.0914,-0.189401 -0.0786,-0.36988 0.0636,-0.5391 0.0596,-0.07095 0.16847,0.02928 0.20501,0.02463 0.0266,-0.02553 -0.004,-0.171164 0.0994,-0.17959 0.21808,-0.01784 0.37467,0.08402 0.47421,0.26764 z"
         sodipodi:nodetypes="szsscss"
         inkscape:transform-center-x="1.3948065"
         inkscape:transform-center-y="-2.5213974" />
    </g>
  </g>
</svg>
