<svg xmlns="http://www.w3.org/2000/svg" width="64" height="64"><path d="M43.778 30.123a.948.948 0 0 0-.942.942h-1.933a8.758 8.758 0 0 0-1.908-4.581l1.369-1.369.012.013a.947.947 0 0 0 1.33 0 .947.947 0 0 0 0-1.33l-1.33-1.33a.947.947 0 0 0-1.33 0 .943.943 0 0 0-.013 1.317l-1.368 1.368a8.805 8.805 0 0 0-4.569-1.895v-1.92h.013a.948.948 0 0 0 .941-.942.948.948 0 0 0-.941-.941h-1.883a.948.948 0 0 0-.941.941c0 .515.414.929.929.941v1.946a8.702 8.702 0 0 0-4.569 1.895l-1.368-1.368.013-.012a.947.947 0 0 0 0-1.33.947.947 0 0 0-1.33 0l-1.331 1.33a.947.947 0 0 0 0 1.33.943.943 0 0 0 1.318.013l1.368 1.368a8.647 8.647 0 0 0-1.883 4.556h-1.933a.948.948 0 0 0-.941-.942.948.948 0 0 0-.942.942v1.882c0 .515.427.942.942.942a.948.948 0 0 0 .941-.942h1.933a8.853 8.853 0 0 0 1.883 4.557l-1.368 1.368a.932.932 0 0 0-1.318.012.947.947 0 0 0 0 1.33l1.33 1.331a.947.947 0 0 0 1.33 0 .947.947 0 0 0 0-1.33l-.012-.013 1.368-1.368a8.764 8.764 0 0 0 4.556 1.895v1.946a.946.946 0 0 0-.929.941c0 .515.427.941.942.941h1.882a.948.948 0 0 0 .942-.941.948.948 0 0 0-.942-.941h-.012v-1.933a8.702 8.702 0 0 0 4.568-1.896l1.369 1.369a.932.932 0 0 0 .012 1.317.947.947 0 0 0 1.33 0l1.331-1.33a.947.947 0 0 0 0-1.33.947.947 0 0 0-1.33 0l-.013.012-1.368-1.368a8.817 8.817 0 0 0 1.908-4.581h1.933c0 .514.426.941.941.941a.948.948 0 0 0 .941-.941v-1.883c.013-.502-.414-.929-.928-.929zm-9.414-3.137c.69 0 1.255.564 1.255 1.255 0 .69-.565 1.255-1.255 1.255s-1.255-.565-1.255-1.255.565-1.255 1.255-1.255zm-2.196 6.275c-.69 0-1.256-.565-1.256-1.255s.565-1.255 1.256-1.255c.69 0 1.255.565 1.255 1.255s-.565 1.255-1.255 1.255zm-2.197-6.275c.69 0 1.255.564 1.255 1.255 0 .69-.565 1.255-1.255 1.255s-1.255-.565-1.255-1.255.565-1.255 1.255-1.255zm-2.196 6.275c-.69 0-1.255-.565-1.255-1.255s.564-1.255 1.255-1.255c.69 0 1.255.565 1.255 1.255s-.565 1.255-1.255 1.255zm2.196 3.766c-.69 0-1.255-.565-1.255-1.256 0-.69.565-1.255 1.255-1.255s1.255.565 1.255 1.255-.565 1.256-1.255 1.256zm4.393 0c-.69 0-1.255-.565-1.255-1.256 0-.69.565-1.255 1.255-1.255s1.255.565 1.255 1.255-.565 1.256-1.255 1.256zm.941-5.02c0-.691.565-1.256 1.256-1.256.69 0 1.255.565 1.255 1.255s-.565 1.255-1.255 1.255-1.256-.565-1.256-1.255z" style="opacity:.65;fill:#17152c;fill-opacity:1;stroke-width:1.25513"/></svg>