<svg xmlns="http://www.w3.org/2000/svg" width="64" height="64"><g style="opacity:.65;fill:#fff;fill-opacity:1"><path d="M4.937 12.5c-.645 0-1.172.528-1.172 1.173s.527 1.172 1.172 1.172c.645 0 1.172-.527 1.172-1.172 0-.645-.527-1.172-1.172-1.172zm0 4.69c-.645 0-1.172.527-1.172 1.172 0 .645.527 1.172 1.172 1.172.645 0 1.172-.527 1.172-1.172 0-.645-.527-1.172-1.172-1.172zm0-9.378c-.645 0-1.172.527-1.172 1.172 0 .645.527 1.172 1.172 1.172.645 0 1.172-.527 1.172-1.172 0-.645-.527-1.172-1.172-1.172zm-3.517.586a.58.58 0 0 0-.586.586.58.58 0 0 0 .586.586.58.58 0 0 0 .586-.586.58.58 0 0 0-.586-.586zm3.517-5.275c-.645 0-1.172.527-1.172 1.172 0 .645.527 1.172 1.172 1.172.645 0 1.172-.527 1.172-1.172 0-.645-.527-1.172-1.172-1.172zM22.52 9.57a.58.58 0 0 0 .586-.586.58.58 0 0 0-.586-.586.58.58 0 0 0-.586.586.58.58 0 0 0 .586.586zm-8.205-4.103c.644 0 1.172-.527 1.172-1.172 0-.645-.528-1.172-1.172-1.172-.645 0-1.172.527-1.172 1.172 0 .645.527 1.172 1.172 1.172zm0-4.102A.58.58 0 0 0 14.9.779a.58.58 0 0 0-.586-.587.58.58 0 0 0-.586.587.58.58 0 0 0 .586.586zM1.42 13.087a.58.58 0 0 0-.586.586.58.58 0 0 0 .586.586.58.58 0 0 0 .586-.586.58.58 0 0 0-.586-.586zm8.206 8.205a.58.58 0 0 0-.586.587.58.58 0 0 0 .586.586.58.58 0 0 0 .586-.586.58.58 0 0 0-.586-.587zm0-19.927a.58.58 0 0 0 .586-.586.58.58 0 0 0-.586-.587.58.58 0 0 0-.586.587.58.58 0 0 0 .586.586zm0 4.102c.645 0 1.172-.527 1.172-1.172 0-.645-.527-1.172-1.172-1.172-.645 0-1.172.527-1.172 1.172 0 .645.527 1.172 1.172 1.172zm0 6.448c-.973 0-1.758.785-1.758 1.758s.785 1.758 1.758 1.758 1.758-.785 1.758-1.758-.785-1.758-1.758-1.758zm9.378.586c-.645 0-1.173.527-1.173 1.172 0 .645.528 1.172 1.173 1.172.644 0 1.172-.527 1.172-1.172 0-.645-.528-1.172-1.172-1.172zm0 4.689c-.645 0-1.173.527-1.173 1.172 0 .645.528 1.172 1.173 1.172.644 0 1.172-.527 1.172-1.172 0-.645-.528-1.172-1.172-1.172zm0-9.378c-.645 0-1.173.527-1.173 1.172 0 .645.528 1.172 1.173 1.172.644 0 1.172-.527 1.172-1.172 0-.645-.528-1.172-1.172-1.172zm0-4.689c-.645 0-1.173.527-1.173 1.172 0 .645.528 1.172 1.173 1.172.644 0 1.172-.527 1.172-1.172 0-.645-.528-1.172-1.172-1.172zm3.516 9.964a.58.58 0 0 0-.586.586.58.58 0 0 0 .586.586.58.58 0 0 0 .586-.586.58.58 0 0 0-.586-.586zm-8.205 4.103c-.645 0-1.172.527-1.172 1.172 0 .645.527 1.172 1.172 1.172.644 0 1.172-.527 1.172-1.172 0-.645-.528-1.172-1.172-1.172zm0 4.102a.58.58 0 0 0-.586.587.58.58 0 0 0 .586.586.58.58 0 0 0 .586-.586.58.58 0 0 0-.586-.587zM9.625 7.226c-.972 0-1.757.785-1.757 1.758s.785 1.758 1.758 1.758 1.758-.785 1.758-1.758-.785-1.758-1.758-1.758zm0 9.964c-.644 0-1.171.527-1.171 1.172 0 .645.527 1.172 1.172 1.172.645 0 1.172-.527 1.172-1.172 0-.645-.527-1.172-1.172-1.172zm4.69-5.275c-.973 0-1.759.785-1.759 1.758s.786 1.758 1.759 1.758c.973 0 1.758-.785 1.758-1.758s-.785-1.758-1.758-1.758zm0-4.69c-.973 0-1.759.786-1.759 1.76 0 .972.786 1.757 1.759 1.757.973 0 1.758-.785 1.758-1.758s-.785-1.758-1.758-1.758z" style="fill:#17152c;fill-opacity:1;stroke-width:1.17222" transform="matrix(1.09486 0 0 1.09486 18.904 19.7)"/></g></svg>