<svg xmlns="http://www.w3.org/2000/svg" width="64" height="64"><g style="opacity:.65;fill:#fff;fill-opacity:1"><g style="fill:#17152c;fill-opacity:1"><path d="M12.037 5.19c-4.35 0-8.067 2.707-9.572 6.527 1.505 3.82 5.221 6.527 9.572 6.527 4.352 0 8.068-2.706 9.573-6.527-1.505-3.82-5.221-6.527-9.573-6.527Zm0 10.878a4.353 4.353 0 0 1-4.35-4.35 4.353 4.353 0 0 1 4.35-4.352 4.353 4.353 0 0 1 4.352 4.351 4.353 4.353 0 0 1-4.352 4.351zm0-6.962a2.607 2.607 0 0 0-2.61 2.611 2.607 2.607 0 0 0 2.61 2.61 2.607 2.607 0 0 0 2.611-2.61 2.607 2.607 0 0 0-2.61-2.61z" style="stroke-width:.870264" transform="matrix(1.235 0 0 1.235 17.104 17.385)"/></g></g></svg>