<svg xmlns="http://www.w3.org/2000/svg" width="64" height="64"><g style="opacity:.65;fill:#fff;fill-opacity:1"><path d="M19.152 11.456C17.54 7.262 11.793 7.036 13.181.94a.518.518 0 0 0-.771-.565c-3.731 2.2-6.414 6.609-4.163 12.385.185.473-.37.915-.77.607-1.86-1.409-2.056-3.433-1.892-4.883.062-.534-.637-.79-.935-.349-.699 1.069-1.408 2.796-1.408 5.396.39 5.756 5.252 7.524 7 7.75 2.497.318 5.2-.144 7.142-1.922 2.138-1.984 2.92-5.15 1.768-7.904zm-9.538 5.17c1.48-.36 2.24-1.429 2.446-2.375.34-1.47-.986-2.908-.092-5.231.34 1.922 3.36 3.124 3.36 5.221.083 2.6-2.733 4.83-5.714 2.385z" style="stroke-width:1.02781;fill:#17152c;fill-opacity:1" transform="matrix(1.09486 0 0 1.09486 18.904 19.7)"/></g></svg>