<svg xmlns="http://www.w3.org/2000/svg" width="64" height="64"><g style="opacity:.65;fill:#fff;fill-opacity:1"><path d="M11.994 13.008a5.612 5.612 0 0 0-4.857 2.812.518.518 0 0 0 .45.767h8.814c.388 0 .644-.43.45-.767a5.612 5.612 0 0 0-4.857-2.812zm-3.732-2.075.542-.542.542.542a.771.771 0 0 0 1.084 0 .771.771 0 0 0 0-1.084l-.542-.542.542-.542a.771.771 0 0 0 0-1.084.771.771 0 0 0-1.084 0l-.542.542-.542-.542a.771.771 0 0 0-1.084 0 .771.771 0 0 0 0 1.084l.542.542-.542.542a.771.771 0 0 0 0 1.084.771.771 0 0 0 1.084 0zm3.722-9.683C6.34 1.25 1.769 5.82 1.769 11.475c0 5.654 4.57 10.225 10.215 10.225 5.644 0 10.235-4.571 10.235-10.225 0-5.655-4.58-10.225-10.235-10.225zm.01 18.405c-4.52 0-8.18-3.661-8.18-8.18 0-4.52 3.66-8.18 8.18-8.18s8.18 3.66 8.18 8.18c0 4.519-3.66 8.18-8.18 8.18zM15.726 7.68l-.542.542-.542-.542a.771.771 0 0 0-1.084 0 .771.771 0 0 0 0 1.084l.542.542-.542.542a.771.771 0 0 0 0 1.084.771.771 0 0 0 1.084 0l.542-.542.542.542a.771.771 0 0 0 1.084 0 .771.771 0 0 0 0-1.084l-.542-.542.542-.542a.771.771 0 0 0 0-1.084.771.771 0 0 0-1.084 0z" style="stroke-width:1.0225;fill:#17152c;fill-opacity:1" transform="matrix(1.09486 0 0 1.09486 18.904 19.7)"/></g></svg>