<svg xmlns="http://www.w3.org/2000/svg" width="64" height="64"><path d="M24.204 33.322v3.111c0 .808.443 1.561 1.152 1.949l5.535 3.022a2.198 2.198 0 0 0 2.126 0l5.535-3.022a2.227 2.227 0 0 0 1.152-1.949v-3.11l-6.687 3.653a2.198 2.198 0 0 1-2.126 0zm6.687-10.695-9.333 5.093a1.115 1.115 0 0 0 0 1.949l9.333 5.092a2.198 2.198 0 0 0 2.126 0l8.901-4.86v6.543a1.11 1.11 0 0 0 1.107 1.107 1.11 1.11 0 0 0 1.107-1.107v-7.096c0-.41-.221-.775-.575-.975l-10.54-5.746a2.259 2.259 0 0 0-2.126 0z" style="opacity:.65;fill:#17152c;fill-opacity:1;stroke-width:1.10712"/></svg>