<svg xmlns="http://www.w3.org/2000/svg" width="64" height="64"><path fill="none" d="M67.864 45.492h24v24h-24z"/><path d="M34.336 20.218H29.96c-.602 0-1.094.492-1.094 1.093 0 .602.492 1.094 1.094 1.094h4.376c.601 0 1.094-.492 1.094-1.094 0-.601-.493-1.093-1.094-1.093zm-2.188 14.22c.601 0 1.094-.492 1.094-1.094V28.97c0-.602-.493-1.094-1.094-1.094-.602 0-1.094.492-1.094 1.094v4.375c0 .602.492 1.094 1.094 1.094zm7.69-7.23.82-.82a1.086 1.086 0 0 0 0-1.532l-.01-.011a1.086 1.086 0 0 0-1.532 0l-.82.82a9.803 9.803 0 0 0-6.148-2.166c-5.25 0-9.714 4.332-9.845 9.583a9.843 9.843 0 0 0 9.845 10.107 9.839 9.839 0 0 0 7.69-15.981zM32.148 41a7.652 7.652 0 0 1-7.657-7.657 7.652 7.652 0 0 1 7.657-7.657 7.652 7.652 0 0 1 7.657 7.657 7.652 7.652 0 0 1-7.657 7.657z" style="opacity:.65;fill:#17152c;fill-opacity:1;stroke-width:1.09389"/></svg>