<?xml version="1.0" encoding="UTF-8" standalone="no"?>
<svg
   width="64"
   height="64"
   version="1.1"
   id="svg1"
   sodipodi:docname="fallback.svg"
   inkscape:version="1.4.2 (ebf0e940d0, 2025-05-08)"
   xmlns:inkscape="http://www.inkscape.org/namespaces/inkscape"
   xmlns:sodipodi="http://sodipodi.sourceforge.net/DTD/sodipodi-0.dtd"
   xmlns="http://www.w3.org/2000/svg"
   xmlns:svg="http://www.w3.org/2000/svg">
  <defs
     id="defs1" />
  <sodipodi:namedview
     id="namedview1"
     pagecolor="#ffffff"
     bordercolor="#000000"
     borderopacity="0.25"
     inkscape:showpageshadow="2"
     inkscape:pageopacity="0.0"
     inkscape:pagecheckerboard="0"
     inkscape:deskcolor="#d1d1d1"
     showguides="false"
     inkscape:zoom="27.4375"
     inkscape:cx="29.430524"
     inkscape:cy="30.943052"
     inkscape:window-width="1920"
     inkscape:window-height="1131"
     inkscape:window-x="0"
     inkscape:window-y="0"
     inkscape:window-maximized="1"
     inkscape:current-layer="svg1" />
  <path
     id="path2"
     style="font-variation-settings:normal;opacity:0.65;vector-effect:none;fill:#17152c;fill-opacity:1;stroke-width:1.0794;stroke-linecap:butt;stroke-linejoin:miter;stroke-miterlimit:4;stroke-dasharray:none;stroke-dashoffset:0;stroke-opacity:1;-inkscape-stroke:none;paint-order:stroke fill markers;stop-color:#000000;stop-opacity:1"
     d="m 24.449845,24.382867 a 10.794,10.794002 45 0 0 0.0014,15.264944 10.794,10.794002 45 0 0 15.263563,0 10.794,10.794002 45 0 0 0.0014,-15.264944 10.794,10.794002 45 0 0 -15.266325,0 z m 1.984595,1.984595 a 7.9876213,7.9876227 45 0 1 9.987883,-1.057898 l -11.0444,11.044399 A 7.9876213,7.9876227 45 0 1 26.43444,26.367462 Z M 27.718833,38.70316 38.77152,27.650473 A 7.9876213,7.9876227 45 0 1 37.730194,37.663216 7.9876213,7.9876227 45 0 1 27.718833,38.70316 Z" />
</svg>
