<?xml version="1.0" encoding="UTF-8" standalone="no"?>
<svg
   width="64"
   height="64"
   version="1.1"
   id="svg1"
   sodipodi:docname="clickSelector.svg"
   inkscape:version="1.4.2 (ebf0e940d0, 2025-05-08)"
   xmlns:inkscape="http://www.inkscape.org/namespaces/inkscape"
   xmlns:sodipodi="http://sodipodi.sourceforge.net/DTD/sodipodi-0.dtd"
   xmlns="http://www.w3.org/2000/svg"
   xmlns:svg="http://www.w3.org/2000/svg">
  <defs
     id="defs1" />
  <sodipodi:namedview
     id="namedview1"
     pagecolor="#ffffff"
     bordercolor="#000000"
     borderopacity="0.25"
     inkscape:showpageshadow="2"
     inkscape:pageopacity="0.0"
     inkscape:pagecheckerboard="0"
     inkscape:deskcolor="#d1d1d1"
     showguides="true"
     inkscape:zoom="27.4375"
     inkscape:cx="29.430524"
     inkscape:cy="30.943052"
     inkscape:window-width="3840"
     inkscape:window-height="2123"
     inkscape:window-x="0"
     inkscape:window-y="0"
     inkscape:window-maximized="1"
     inkscape:current-layer="svg1">
    <sodipodi:guide
       position="32,32"
       orientation="-1,0"
       id="guide1"
       inkscape:locked="false"
       inkscape:label=""
       inkscape:color="rgb(0,134,229)" />
    <sodipodi:guide
       position="32,32"
       orientation="0,1"
       id="guide2"
       inkscape:locked="false"
       inkscape:label=""
       inkscape:color="rgb(0,134,229)" />
  </sodipodi:namedview>
  <path
     stroke="none"
     d="M 40,7 H 64 V 31 H 40 Z"
     fill="none"
     id="path1" />
  <path
     d="m 23.248567,24.434175 3.904,13.563 c 0.185,0.837 0.92,1.516 1.831,1.642 l 0.17,0.016 a 2.2,2.2 0 0 0 1.982,-1.006 l 0.045,-0.078 1.4,-2.072 4.05,4.05 a 2.067,2.067 0 0 0 2.924,0 l 1.047,-1.047 c 0.388,-0.388 0.606,-0.913 0.606,-1.461 l -0.008,-0.182 a 2.067,2.067 0 0 0 -0.598,-1.28 l -4.047,-4.048 2.103,-1.412 c 0.726,-0.385 1.18,-1.278 1.053,-2.189 a 2.2,2.2 0 0 0 -1.701,-1.845 l -13.524,-3.89 a 1,1 0 0 0 -1.236,1.24 z"
     id="path2"
     style="font-variation-settings:normal;opacity:0.65;vector-effect:none;fill:#17152c;fill-opacity:1;stroke-width:1.0794;stroke-linecap:butt;stroke-linejoin:miter;stroke-miterlimit:4;stroke-dasharray:none;stroke-dashoffset:0;stroke-opacity:1;-inkscape-stroke:none;paint-order:stroke fill markers;stop-color:#000000;stop-opacity:1" />
</svg>
