<svg xmlns="http://www.w3.org/2000/svg" width="64" height="64"><path d="M32.083 21.221c-5.937 0-10.794 4.857-10.794 10.794s4.857 10.794 10.794 10.794c5.936 0 10.794-4.857 10.794-10.794s-4.858-10.794-10.794-10.794zm-8.636 10.794c0-4.75 3.886-8.635 8.636-8.635 1.943 0 3.778.647 5.289 1.835l-12.09 12.09a8.507 8.507 0 0 1-1.835-5.29Zm8.636 8.635a8.507 8.507 0 0 1-5.29-1.835l12.09-12.089a8.507 8.507 0 0 1 1.835 5.289c0 4.75-3.886 8.635-8.635 8.635z" style="opacity:.65;fill:#17152c;fill-opacity:1;stroke-width:1.0794"/></svg>