<?xml version="1.0" encoding="UTF-8" standalone="no"?>
<svg
   width="64"
   height="64"
   version="1.1"
   id="svg1"
   sodipodi:docname="menuThemesSelected.svg"
   inkscape:version="1.4.2 (ebf0e940d0, 2025-05-08)"
   xmlns:inkscape="http://www.inkscape.org/namespaces/inkscape"
   xmlns:sodipodi="http://sodipodi.sourceforge.net/DTD/sodipodi-0.dtd"
   xmlns="http://www.w3.org/2000/svg"
   xmlns:svg="http://www.w3.org/2000/svg">
  <defs
     id="defs1" />
  <sodipodi:namedview
     id="namedview1"
     pagecolor="#ffffff"
     bordercolor="#000000"
     borderopacity="0.25"
     inkscape:showpageshadow="2"
     inkscape:pageopacity="0.0"
     inkscape:pagecheckerboard="0"
     inkscape:deskcolor="#d1d1d1"
     showguides="true"
     inkscape:zoom="27.4375"
     inkscape:cx="29.430524"
     inkscape:cy="30.943052"
     inkscape:window-width="3840"
     inkscape:window-height="2123"
     inkscape:window-x="0"
     inkscape:window-y="0"
     inkscape:window-maximized="1"
     inkscape:current-layer="svg1">
    <sodipodi:guide
       position="32,32"
       orientation="-1,0"
       id="guide1"
       inkscape:locked="false"
       inkscape:label=""
       inkscape:color="rgb(0,134,229)" />
    <sodipodi:guide
       position="32,32"
       orientation="0,1"
       id="guide2"
       inkscape:locked="false"
       inkscape:label=""
       inkscape:color="rgb(0,134,229)" />
  </sodipodi:namedview>
  <path
     stroke="none"
     d="M 38,30 H 62 V 54 H 38 Z"
     fill="none"
     id="path1-1" />
  <path
     stroke="none"
     d="M 50,31 H 74 V 55 H 50 Z"
     fill="none"
     id="path1" />
  <path
     d="m 32.041001,19.878691 c 6.700297,0 12.186788,4.877152 12.186788,10.968109 0,1.646435 -0.731207,3.217312 -2.015694,4.357995 -1.255239,1.113873 -2.939454,1.735399 -4.687039,1.735399 H 34.45886 a 1.2186788,1.2186788 0 0 0 -0.609339,2.285023 1.2186788,1.2186788 0 0 1 0.236423,0.170615 2.8029612,2.8029612 0 0 1 -1.94623,4.862528 l -0.190113,-0.01097 0.08287,0.0049 -0.3327,-0.0049 C 25.240774,44.069465 20.037015,38.865707 19.859088,32.406709 l -0.0049,-0.34123 c 0,-6.730763 5.456025,-12.186788 12.186788,-12.186788 m -4.265375,7.921412 a 2.4373576,2.4373576 0 0 0 -2.431265,2.254556 l -0.0061,0.182802 a 2.4373576,2.4373576 0 1 0 2.437358,-2.437358 m 9.74943,0 a 2.4373576,2.4373576 0 0 0 -2.431264,2.254556 l -0.0061,0.182802 a 2.4373576,2.4373576 0 1 0 2.437358,-2.437358 m -4.874715,-3.656036 a 2.4373576,2.4373576 0 0 0 -2.431264,2.254555 l -0.0061,0.182802 a 2.4373576,2.4373576 0 1 0 2.437358,-2.437357"
     id="path2-4"
     style="font-variation-settings:normal;opacity:0.65;vector-effect:none;fill:#17152c;fill-opacity:1;stroke-width:1.0794;stroke-linecap:butt;stroke-linejoin:miter;stroke-miterlimit:4;stroke-dasharray:none;stroke-dashoffset:0;stroke-opacity:1;-inkscape-stroke:none;paint-order:stroke fill markers;stop-color:#000000;stop-opacity:1" />
</svg>
