<svg xmlns="http://www.w3.org/2000/svg" width="64" height="64"><g style="opacity:.65;fill:#fff;fill-opacity:1"><g style="fill:#17152c;fill-opacity:1"><path style="fill:#17152c;fill-opacity:1;stroke-width:1.23501" d="M26.984 19.855a1.24 1.24 0 0 0-1.236 1.235v9.178c0 .432.223.838.606 1.06l5.162 3.1-1.223 2.89-2.74.235c-.568.05-.791.73-.371 1.088l2.088 1.802-.631 2.692a.62.62 0 0 0 .925.668l2.36-1.434 2.36 1.42a.62.62 0 0 0 .925-.666l-.629-2.691 2.086-1.805a.62.62 0 0 0-.357-1.086l-2.743-.234-1.222-2.891 5.162-3.1c.37-.21.594-.604.594-1.048V21.09a1.24 1.24 0 0 0-1.237-1.235h-9.879zm3.705 1.235h2.47v11.4l-1.235.74-1.235-.74v-11.4zm-3.402.008h1.955v10.658l-1.955-1.27v-9.388zm7.412 0h1.955v9.388l-1.955 1.27V21.098z"/><path style="opacity:.65;fill:#17152c;fill-opacity:1;stroke-width:.642342" d="M19.317 13.014c-.112-.124-.228-.23-.431.006l-.636 1.504-1.425.122c-.296.026-.412.38-.193.566l1.086.937-.328 1.4a.322.322 0 0 0 .481.348l1.227-.746 1.227.738a.322.322 0 0 0 .482-.346l-.327-1.4 1.085-.938a.323.323 0 0 0-.186-.565l-1.426-.122z" transform="matrix(1.235 0 0 1.235 17.104 17.385)"/><path style="opacity:.59989934;fill:#17152c;fill-opacity:1;stroke-width:.343554" d="M21.278 9.38c-.037-.007-.079.01-.133.073l-.34.805-.763.065c-.158.014-.22.203-.103.303l.58.5-.175.75a.172.172 0 0 0 .258.186l.656-.4.657.395a.172.172 0 0 0 .257-.185l-.175-.748.58-.502a.173.173 0 0 0-.1-.302l-.762-.065-.34-.805c-.03-.033-.06-.063-.097-.07Z" transform="matrix(1.235 0 0 1.235 17.104 17.385)"/><path style="opacity:.65;fill:#17152c;fill-opacity:1;stroke-width:.642342" d="M5.144 13.014c-.112-.124-.228-.23-.43.006l-.637 1.504-1.425.122c-.295.026-.411.38-.193.566l1.086.937-.328 1.4a.322.322 0 0 0 .482.348l1.227-.746 1.227.738a.322.322 0 0 0 .481-.346l-.327-1.4 1.085-.938a.323.323 0 0 0-.186-.565l-1.426-.122z" transform="matrix(1.235 0 0 1.235 17.104 17.385)"/><path style="opacity:.42521875;fill:#17152c;fill-opacity:1;stroke-width:.25561" d="M21.548 6.153c-.027-.005-.059.008-.099.055l-.253.599-.567.048c-.118.01-.164.151-.077.225l.432.373-.13.557a.128.128 0 0 0 .191.138l.488-.296.489.293a.128.128 0 0 0 .19-.138l-.129-.556.432-.374a.128.128 0 0 0-.074-.224l-.568-.049-.253-.599c-.022-.024-.045-.047-.072-.052z" transform="matrix(1.235 0 0 1.235 17.104 17.385)"/><path style="opacity:.599899;fill:#17152c;fill-opacity:1;stroke-width:.343554" d="M2.962 9.38c-.037-.007-.08.01-.133.073l-.34.805-.763.065c-.158.014-.22.203-.103.303l.58.5-.175.75a.172.172 0 0 0 .257.186l.657-.4.657.395a.172.172 0 0 0 .256-.185l-.174-.748.58-.502a.173.173 0 0 0-.1-.302l-.762-.065-.34-.805c-.03-.033-.06-.063-.097-.07z" transform="matrix(1.235 0 0 1.235 17.104 17.385)"/><path style="opacity:.425219;fill:#17152c;fill-opacity:1;stroke-width:.25561" d="M2.675 6.153c-.027-.005-.058.008-.098.055l-.253.599-.568.048c-.118.01-.164.151-.077.225l.432.373-.13.557a.128.128 0 0 0 .191.138l.489-.296.488.293a.128.128 0 0 0 .191-.138l-.13-.556.432-.374a.128.128 0 0 0-.074-.224l-.567-.049-.253-.599c-.023-.024-.045-.047-.073-.052z" transform="matrix(1.235 0 0 1.235 17.104 17.385)"/></g></g></svg>