<svg xmlns="http://www.w3.org/2000/svg" width="64" height="64"><g style="opacity:.65;fill:#fff;fill-opacity:1"><g style="fill:#17152c;fill-opacity:1"><path style="fill:#17152c;fill-opacity:1;stroke-width:1.23501" d="M26.984 19.855a1.24 1.24 0 0 0-1.236 1.235v9.178c0 .432.223.838.606 1.06l5.162 3.1-1.223 2.89-2.74.235c-.568.05-.791.73-.371 1.088l2.088 1.802-.631 2.692a.62.62 0 0 0 .925.668l2.36-1.434 2.36 1.42a.62.62 0 0 0 .925-.666l-.629-2.691 2.086-1.805a.62.62 0 0 0-.357-1.086l-2.743-.234-1.222-2.891 5.162-3.1c.37-.21.594-.604.594-1.048V21.09a1.24 1.24 0 0 0-1.237-1.235h-9.879zm3.705 1.235h2.47v11.4l-1.235.74-1.235-.74v-11.4z"/><path style="opacity:.65;fill:#17152c;fill-opacity:1;stroke-width:.527174" d="M5.353 13.444c-.092-.102-.188-.189-.354.005l-.522 1.234-1.17.1c-.242.021-.337.312-.158.465l.891.77-.269 1.148a.265.265 0 0 0 .395.285l1.007-.612 1.007.606c.2.121.448-.057.396-.284l-.269-1.149.89-.77a.265.265 0 0 0-.152-.464l-1.17-.1ZM18.64 13.444c-.092-.102-.188-.189-.354.005l-.522 1.234-1.17.1c-.242.021-.337.312-.158.465l.891.77-.27 1.148a.265.265 0 0 0 .396.285l1.007-.612 1.007.606c.2.121.448-.057.395-.284l-.268-1.149.89-.77a.265.265 0 0 0-.152-.464l-1.17-.1z" transform="matrix(1.235 0 0 1.235 17.104 17.385)"/></g></g></svg>