<?xml version="1.0" encoding="UTF-8" standalone="no"?>
<svg
   width="64"
   height="64"
   version="1.1"
   id="svg1"
   sodipodi:docname="journey.svg"
   inkscape:version="1.4.2 (ebf0e940d0, 2025-05-08)"
   xmlns:inkscape="http://www.inkscape.org/namespaces/inkscape"
   xmlns:sodipodi="http://sodipodi.sourceforge.net/DTD/sodipodi-0.dtd"
   xmlns="http://www.w3.org/2000/svg"
   xmlns:svg="http://www.w3.org/2000/svg">
  <defs
     id="defs1" />
  <sodipodi:namedview
     id="namedview1"
     pagecolor="#ffffff"
     bordercolor="#000000"
     borderopacity="0.25"
     inkscape:showpageshadow="2"
     inkscape:pageopacity="0.0"
     inkscape:pagecheckerboard="0"
     inkscape:deskcolor="#d1d1d1"
     inkscape:zoom="13.71875"
     inkscape:cx="26.205011"
     inkscape:cy="23.908884"
     inkscape:window-width="1920"
     inkscape:window-height="1131"
     inkscape:window-x="0"
     inkscape:window-y="0"
     inkscape:window-maximized="1"
     inkscape:current-layer="svg1" />
  <g
     style="opacity:0.65;fill:#17152c;fill-opacity:1"
     id="g1"
     transform="translate(-0.14578588,1.6765376)">
    <path
       d="m 16.24,14.37 1.23,0.93 c 0.4,0.3 0.51,0.86 0.26,1.3 l -1.62,2.8 c -0.25,0.44 -0.79,0.62 -1.25,0.42 l -1.43,-0.6 c -0.2,0.13 -0.42,0.26 -0.64,0.37 l -0.19,1.54 c -0.06,0.5 -0.49,0.88 -0.99,0.88 H 8.38 c -0.5,0 -0.93,-0.38 -0.99,-0.88 L 7.2,19.59 C 6.98,19.48 6.77,19.36 6.56,19.22 l -1.43,0.6 c -0.46,0.2 -1,0.02 -1.25,-0.42 L 2.26,16.6 C 2.01,16.16 2.12,15.61 2.52,15.3 L 3.75,14.37 V 14 c 0,-0.12 0,-0.25 0.01,-0.37 L 2.53,12.7 C 2.13,12.4 2.02,11.84 2.27,11.4 L 3.89,8.6 C 4.14,8.16 4.68,7.98 5.14,8.18 l 1.43,0.6 C 6.77,8.65 6.99,8.52 7.21,8.41 L 7.4,6.87 C 7.45,6.38 7.88,6 8.38,6 h 3.23 c 0.5,0 0.93,0.38 0.99,0.88 l 0.19,1.54 c 0.22,0.11 0.43,0.23 0.64,0.37 l 1.43,-0.6 c 0.46,-0.2 1,-0.02 1.25,0.42 l 1.62,2.8 c 0.25,0.44 0.14,0.99 -0.26,1.3 l -1.23,0.93 c 0.01,0.12 0.01,0.24 0.01,0.37 0,0.13 0,0.24 -0.01,0.36 z M 13,14 c 0,-1.66 -1.34,-3 -3,-3 -1.66,0 -3,1.34 -3,3 0,1.66 1.34,3 3,3 1.66,0 3,-1.34 3,-3 z"
       style="fill:#17152c;fill-opacity:1"
       transform="matrix(1.13218,0,0,1.13218,19.267,16.54)"
       id="path1"
       sodipodi:nodetypes="ccccccccssccccccccsccccccccssccccccccscsssss" />
  </g>
  <path
     sodipodi:type="star"
     style="font-variation-settings:normal;opacity:0.65;vector-effect:none;fill:#17152c;fill-opacity:1;stroke-width:1.24868;stroke-linecap:butt;stroke-linejoin:miter;stroke-miterlimit:4;stroke-dasharray:none;stroke-dashoffset:0;stroke-opacity:1;-inkscape-stroke:none;paint-order:stroke fill markers"
     id="path4"
     inkscape:flatsided="false"
     sodipodi:sides="4"
     sodipodi:cx="18.041002"
     sodipodi:cy="22.742598"
     sodipodi:r1="2.8840854"
     sodipodi:r2="1.485304"
     sodipodi:arg1="1.5651274"
     sodipodi:arg2="2.351361"
     inkscape:rounded="0.25"
     inkscape:randomized="0"
     d="m 18.057352,25.626637 c -0.528613,0.0026 -0.685626,-1.457042 -1.06153,-1.828707 -0.375477,-0.371244 -1.836307,-0.510969 -1.838859,-1.038983 -0.0026,-0.528613 1.457041,-0.685626 1.828707,-1.061529 0.371244,-0.375478 0.510968,-1.836307 1.038983,-1.838859 0.528613,-0.0026 0.685626,1.457041 1.061529,1.828706 0.375478,0.371244 1.836307,0.510969 1.838859,1.038983 0.0026,0.528613 -1.457041,0.685626 -1.828706,1.061529 -0.371244,0.375478 -0.510969,1.836307 -1.038983,1.83886 z"
     transform="matrix(0.86443114,0,0,0.86443114,28.184868,11.760755)" />
  <path
     sodipodi:type="star"
     style="font-variation-settings:normal;opacity:0.65;vector-effect:none;fill:#17152c;fill-opacity:1;stroke-width:0.92436;stroke-linecap:butt;stroke-linejoin:miter;stroke-miterlimit:4;stroke-dasharray:none;stroke-dashoffset:0;stroke-opacity:1;-inkscape-stroke:none;paint-order:stroke fill markers"
     id="path3"
     inkscape:flatsided="false"
     sodipodi:sides="4"
     sodipodi:cx="18.041002"
     sodipodi:cy="22.742598"
     sodipodi:r1="2.8840854"
     sodipodi:r2="1.485304"
     sodipodi:arg1="1.5651274"
     sodipodi:arg2="2.351361"
     inkscape:rounded="0.25"
     inkscape:randomized="0"
     d="m 18.057352,25.626637 c -0.528613,0.0026 -0.685626,-1.457042 -1.06153,-1.828707 -0.375477,-0.371244 -1.836307,-0.510969 -1.838859,-1.038983 -0.0026,-0.528613 1.457041,-0.685626 1.828707,-1.061529 0.371244,-0.375478 0.510968,-1.836307 1.038983,-1.838859 0.528613,-0.0026 0.685626,1.457041 1.061529,1.828706 0.375478,0.371244 1.836307,0.510969 1.838859,1.038983 0.0026,0.528613 -1.457041,0.685626 -1.828706,1.061529 -0.371244,0.375478 -0.510969,1.836307 -1.038983,1.83886 z"
     transform="matrix(1.167726,0,0,1.167726,18.801962,-3.7952737)" />
</svg>
